<svg
  xmlns="http://www.w3.org/2000/svg"
  width="896"
  height="288"
  viewBox="0 0 896 288"
  fill="none"
>
  <style>
    * {
      transform-origin: center;
      transform-box: fill-box;
    }

    .animate-ping {
      animation: ping 1s cubic-bezier(0, 0, 0.2, 1) infinite;
    }

    .animate-fade-in {
      animation: fade-in 0.64s cubic-bezier(0, 0, 0.2, 1) forwards;
    }

    .animate-fade-in-bottom {
      animation: fade-in-bottom 0.64s cubic-bezier(0, 0, 0.2, 1) forwards;
    }

    .animate-fade-in-right {
      animation: fade-in-right 0.64s cubic-bezier(0, 0, 0.2, 1) forwards;
    }

    .title {
      opacity: 0;
      animation-delay: 0.4s;
    }

    .description {
      opacity: 0;
      animation-delay: 0.7s;
    }

    .additional {
      opacity: 0;
      animation-delay: 1s;
    }

    .additional__indicator {
      opacity: 0;
      animation-delay: 1.6s;
    }

    @keyframes ping {
      75%,
      100% {
        transform: scale(2);
        opacity: 0;
      }
    }

    @keyframes fade-in {
      from {
        opacity: 0;
      }
      to {
        opacity: 1;
      }
    }

    @keyframes fade-in-bottom {
      from {
        opacity: 0;
        transform: translate3d(0, -20px, 0);
      }
      to {
        opacity: 1;
        transform: translate3d(0, 0, 0);
      }
    }

    @keyframes fade-in-right {
      from {
        opacity: 0;
        transform: translate3d(-20px, 0, 0);
      }
      to {
        opacity: 1;
        transform: translate3d(0, 0, 0);
      }
    }
  </style>
  <g clip-path="url(#clip0_1_2)">
    <!-- #region background  -->
    <rect width="896" height="288" fill="url(#paint0_linear_1_2)" />
    <mask
      id="mask0_1_2"
      style="mask-type: alpha"
      maskUnits="userSpaceOnUse"
      x="0"
      y="0"
      width="896"
      height="288"
    >
      <rect width="896" height="288" fill="url(#paint1_linear_1_2)" />
    </mask>
    <g mask="url(#mask0_1_2)">
      <path
        d="M32.5001 0L32.5001 288M64.5001 0L64.5001 288M96.5001 0L96.5001 288M128.5 0L128.5 288M160.5 0L160.5 288M192.5 0L192.5 288M224.5 0L224.5 288M256.5 0V288M288.5 0V288M320.5 0V288M352.5 0V288M384.5 0V288M416.5 0V288M448.5 0V288M480.5 0V288M512.5 0V288M544.5 0V288M576.5 0V288M608.5 0V288M640.5 0V288M672.5 0V288M704.5 0V288M736.5 0V288M768.5 0V288M800.5 0V288M832.5 0V288M864.5 0V288M0 31.5H896M0 63.5H896M0 95.5H896M0 127.5H896M0 159.5H896M0 191.5H896M0 223.5H896M0 255.5H896"
        stroke="black"
        stroke-opacity="0.04"
        stroke-dasharray="5 5"
      />
    </g>
    <!-- #endregion -->

    <!-- #region title -->
    <g class="animate-fade-in-bottom title">
      <!-- IM -->
      <path
        d="M 90.22 30.745 L 90.22 51.87 L 81.12 51.87 L 81.12 31.98 A 13.331 13.331 0 0 0 80.9 29.477 Q 80.433 27.037 78.975 25.513 A 7.093 7.093 0 0 0 75.086 23.447 A 10.335 10.335 0 0 0 73.125 23.27 A 9.888 9.888 0 0 0 70.586 23.579 A 7.101 7.101 0 0 0 67.243 25.513 Q 65.324 27.489 65.096 31.004 A 15.086 15.086 0 0 0 65.065 31.98 L 65.065 51.87 L 55.965 51.87 L 55.965 31.98 A 13.331 13.331 0 0 0 55.745 29.477 Q 55.278 27.037 53.82 25.513 A 7.093 7.093 0 0 0 49.931 23.447 A 10.335 10.335 0 0 0 47.97 23.27 Q 44.2 23.27 42.023 25.513 Q 40.104 27.489 39.876 31.004 A 15.086 15.086 0 0 0 39.845 31.98 L 39.845 51.87 L 30.745 51.87 L 30.745 15.86 L 39.845 15.86 L 39.845 20.215 A 12.044 12.044 0 0 1 44.106 16.764 A 14.058 14.058 0 0 1 44.363 16.64 A 13.82 13.82 0 0 1 49.519 15.366 A 16.341 16.341 0 0 1 50.44 15.34 A 17.088 17.088 0 0 1 54.789 15.875 A 14.386 14.386 0 0 1 57.98 17.128 Q 61.295 18.915 63.115 22.23 A 12.872 12.872 0 0 1 67.604 17.589 A 15.455 15.455 0 0 1 68.217 17.225 Q 71.565 15.34 75.465 15.34 A 17.589 17.589 0 0 1 80.253 15.96 A 13.32 13.32 0 0 1 86.157 19.402 Q 90.1 23.345 90.216 30.317 A 25.585 25.585 0 0 1 90.22 30.745 Z M 0 6.5 L 9.1 6.5 L 9.1 51.87 L 0 51.87 L 0 6.5 Z M 15.99 0 L 23.79 0 L 23.01 13.78 L 16.835 13.78 L 15.99 0 Z"
        fill="#334155"
        transform="translate(130, 99)"
      />

      <!-- VINCENT -->
      <path
        d="M 34.645 5.59 L 44.33 5.59 L 27.69 50.96 L 16.64 50.96 L 0 5.59 L 9.75 5.59 L 22.23 41.665 L 34.645 5.59 Z M 102.18 29.835 L 102.18 50.96 L 93.08 50.96 L 93.08 31.07 A 13.754 13.754 0 0 0 92.855 28.497 Q 92.575 27.033 91.951 25.889 A 6.982 6.982 0 0 0 90.935 24.473 A 7.078 7.078 0 0 0 86.84 22.31 A 10.232 10.232 0 0 0 85.085 22.165 A 9.958 9.958 0 0 0 82.581 22.463 A 7.07 7.07 0 0 0 79.137 24.473 Q 76.96 26.78 76.96 31.07 L 76.96 50.96 L 67.86 50.96 L 67.86 14.95 L 76.96 14.95 L 76.96 19.435 A 12.55 12.55 0 0 1 81.519 15.805 A 14.519 14.519 0 0 1 81.608 15.763 A 14.138 14.138 0 0 1 86.979 14.451 A 16.645 16.645 0 0 1 87.815 14.43 Q 94.25 14.43 98.215 18.493 A 13.349 13.349 0 0 1 101.551 24.545 Q 102.18 26.935 102.18 29.835 Z M 224.38 29.835 L 224.38 50.96 L 215.28 50.96 L 215.28 31.07 A 13.754 13.754 0 0 0 215.055 28.497 Q 214.775 27.033 214.151 25.889 A 6.982 6.982 0 0 0 213.135 24.473 A 7.078 7.078 0 0 0 209.04 22.31 A 10.232 10.232 0 0 0 207.285 22.165 A 9.958 9.958 0 0 0 204.781 22.463 A 7.07 7.07 0 0 0 201.337 24.473 Q 199.16 26.78 199.16 31.07 L 199.16 50.96 L 190.06 50.96 L 190.06 14.95 L 199.16 14.95 L 199.16 19.435 A 12.55 12.55 0 0 1 203.719 15.805 A 14.519 14.519 0 0 1 203.808 15.763 A 14.138 14.138 0 0 1 209.179 14.451 A 16.645 16.645 0 0 1 210.015 14.43 Q 216.45 14.43 220.415 18.493 A 13.349 13.349 0 0 1 223.751 24.545 Q 224.38 26.935 224.38 29.835 Z M 143.26 27.105 L 133.445 27.105 A 7.68 7.68 0 0 0 132.25 24.819 A 6.878 6.878 0 0 0 130.812 23.433 Q 128.96 22.1 126.23 22.1 A 8.658 8.658 0 0 0 123.38 22.549 A 7.262 7.262 0 0 0 120.055 24.928 A 9.36 9.36 0 0 0 118.441 28.038 Q 117.78 30.152 117.78 32.955 Q 117.78 36.565 118.904 39.035 A 8.811 8.811 0 0 0 120.055 40.918 A 7.351 7.351 0 0 0 125.396 43.711 A 10.068 10.068 0 0 0 126.23 43.745 A 9.383 9.383 0 0 0 129.034 43.355 Q 131.931 42.45 133.2 39.449 A 9.771 9.771 0 0 0 133.445 38.805 L 143.26 38.805 A 17.83 17.83 0 0 1 140.798 44.413 A 15.991 15.991 0 0 1 137.345 48.1 A 16.039 16.039 0 0 1 130.223 51.209 A 22.008 22.008 0 0 1 126.295 51.545 Q 121.095 51.545 117.065 49.238 Q 113.035 46.93 110.76 42.738 A 18.587 18.587 0 0 1 108.754 36.633 A 24.299 24.299 0 0 1 108.485 32.955 Q 108.485 27.365 110.76 23.173 Q 113.035 18.98 117.065 16.673 A 17.508 17.508 0 0 1 124.037 14.48 A 21.815 21.815 0 0 1 126.295 14.365 A 22.018 22.018 0 0 1 131.309 14.907 A 15.79 15.79 0 0 1 137.378 17.713 Q 141.765 21.06 143.26 27.105 Z M 183.17 35.685 L 156.845 35.685 A 11.25 11.25 0 0 0 157.399 38.424 A 8.06 8.06 0 0 0 159.575 41.795 A 8.317 8.317 0 0 0 165.002 43.994 A 10.792 10.792 0 0 0 165.49 44.005 Q 170.267 44.005 172.447 40.139 A 9.899 9.899 0 0 0 172.705 39.65 L 182.52 39.65 Q 180.96 44.85 176.54 48.198 A 16.341 16.341 0 0 1 169.053 51.295 A 21.901 21.901 0 0 1 165.685 51.545 A 20.079 20.079 0 0 1 159.924 50.742 A 17.565 17.565 0 0 1 156.358 49.238 Q 152.23 46.93 149.923 42.705 A 18.783 18.783 0 0 1 147.818 36.121 A 23.949 23.949 0 0 1 147.615 32.955 Q 147.615 27.365 149.89 23.14 Q 152.165 18.915 156.26 16.64 A 18.027 18.027 0 0 1 162.785 14.545 A 22.761 22.761 0 0 1 165.685 14.365 Q 170.82 14.365 174.883 16.575 Q 178.945 18.785 181.188 22.848 A 18.001 18.001 0 0 1 183.272 29.463 A 22.672 22.672 0 0 1 183.43 32.175 A 25.147 25.147 0 0 1 183.366 34.014 A 18.357 18.357 0 0 1 183.17 35.685 Z M 251.68 22.425 L 243.62 22.425 L 243.62 39.845 A 5.968 5.968 0 0 0 243.689 40.789 Q 243.768 41.281 243.937 41.67 A 2.372 2.372 0 0 0 244.498 42.478 A 2.517 2.517 0 0 0 245.304 42.965 Q 246.139 43.29 247.455 43.29 L 251.68 43.29 L 251.68 50.96 L 245.96 50.96 A 17.113 17.113 0 0 1 241.477 50.425 Q 236.348 49.03 234.965 43.993 A 15.936 15.936 0 0 1 234.455 39.78 L 234.455 22.425 L 230.165 22.425 L 230.165 14.95 L 234.455 14.95 L 234.455 6.045 L 243.62 6.045 L 243.62 14.95 L 251.68 14.95 L 251.68 22.425 Z M 49.79 14.95 L 58.89 14.95 L 58.89 50.96 L 49.79 50.96 L 49.79 14.95 Z M 156.91 29.575 L 174.005 29.575 A 8.215 8.215 0 0 0 173.522 26.863 A 6.959 6.959 0 0 0 171.47 23.953 A 8.758 8.758 0 0 0 166.355 21.878 A 11.401 11.401 0 0 0 165.425 21.84 A 9.217 9.217 0 0 0 162.492 22.29 A 7.86 7.86 0 0 0 159.737 23.888 A 8.248 8.248 0 0 0 157.41 27.456 A 11.551 11.551 0 0 0 156.91 29.575 Z M 54.405 10.66 Q 52 10.66 50.408 9.133 Q 48.815 7.605 48.815 5.33 Q 48.815 3.055 50.408 1.528 A 5.439 5.439 0 0 1 53.925 0.016 A 7.203 7.203 0 0 1 54.405 0 Q 56.81 0 58.403 1.528 Q 59.995 3.055 59.995 5.33 Q 59.995 7.605 58.403 9.133 A 5.439 5.439 0 0 1 54.885 10.645 A 7.203 7.203 0 0 1 54.405 10.66 Z"
        fill="#4F7118"
        transform="translate(238, 99)"
      />

      <!-- DUCHENE -->
      <path
        d="M 163.02 29.445 L 163.02 50.57 L 153.92 50.57 L 153.92 30.68 A 13.754 13.754 0 0 0 153.695 28.107 Q 153.415 26.643 152.791 25.499 A 6.982 6.982 0 0 0 151.775 24.083 A 7.078 7.078 0 0 0 147.68 21.919 A 10.232 10.232 0 0 0 145.925 21.775 A 9.958 9.958 0 0 0 143.421 22.073 A 7.07 7.07 0 0 0 139.977 24.082 Q 137.8 26.39 137.8 30.68 L 137.8 50.57 L 128.7 50.57 L 128.7 2.47 L 137.8 2.47 L 137.8 19.045 A 11.542 11.542 0 0 1 141.509 15.86 A 14.022 14.022 0 0 1 142.48 15.373 A 14.917 14.917 0 0 1 147.393 14.108 A 18.079 18.079 0 0 1 148.98 14.04 A 16.047 16.047 0 0 1 153.074 14.544 A 13.489 13.489 0 0 1 156.26 15.828 A 12.196 12.196 0 0 1 160.974 20.612 A 14.828 14.828 0 0 1 161.233 21.093 A 15.57 15.57 0 0 1 162.653 25.314 Q 163.02 27.236 163.02 29.445 Z M 246.09 29.445 L 246.09 50.57 L 236.99 50.57 L 236.99 30.68 A 13.754 13.754 0 0 0 236.765 28.107 Q 236.485 26.643 235.861 25.499 A 6.982 6.982 0 0 0 234.845 24.083 A 7.078 7.078 0 0 0 230.75 21.919 A 10.232 10.232 0 0 0 228.995 21.775 A 9.958 9.958 0 0 0 226.491 22.073 A 7.07 7.07 0 0 0 223.047 24.082 Q 220.87 26.39 220.87 30.68 L 220.87 50.57 L 211.77 50.57 L 211.77 14.56 L 220.87 14.56 L 220.87 19.045 A 12.55 12.55 0 0 1 225.429 15.414 A 14.519 14.519 0 0 1 225.518 15.372 A 14.138 14.138 0 0 1 230.889 14.061 A 16.645 16.645 0 0 1 231.725 14.04 Q 238.16 14.04 242.125 18.103 A 13.349 13.349 0 0 1 245.461 24.155 Q 246.09 26.544 246.09 29.445 Z M 71.435 14.56 L 80.6 14.56 L 80.6 50.57 L 71.435 50.57 L 71.435 46.02 A 11.909 11.909 0 0 1 67.245 49.5 A 14.024 14.024 0 0 1 66.853 49.693 A 14.164 14.164 0 0 1 60.968 51.023 A 16.354 16.354 0 0 1 60.71 51.025 A 17.005 17.005 0 0 1 56.612 50.55 A 13.913 13.913 0 0 1 53.235 49.238 A 12.523 12.523 0 0 1 48.309 44.295 A 15.087 15.087 0 0 1 48.132 43.973 A 15.339 15.339 0 0 1 46.61 39.506 A 21.112 21.112 0 0 1 46.28 35.685 L 46.28 14.56 L 55.38 14.56 L 55.38 34.385 A 13.754 13.754 0 0 0 55.605 36.958 Q 55.885 38.422 56.509 39.566 A 6.982 6.982 0 0 0 57.525 40.982 A 7.078 7.078 0 0 0 61.62 43.146 A 10.232 10.232 0 0 0 63.375 43.29 A 9.908 9.908 0 0 0 65.875 42.992 A 6.944 6.944 0 0 0 69.29 40.983 Q 71.147 38.984 71.396 35.499 A 15.644 15.644 0 0 0 71.435 34.385 L 71.435 14.56 Z M 122.005 26.715 L 112.19 26.715 A 7.68 7.68 0 0 0 110.995 24.429 A 6.878 6.878 0 0 0 109.557 23.042 Q 107.705 21.71 104.975 21.71 A 8.658 8.658 0 0 0 102.125 22.159 A 7.262 7.262 0 0 0 98.8 24.537 A 9.36 9.36 0 0 0 97.186 27.648 Q 96.525 29.762 96.525 32.565 Q 96.525 36.175 97.649 38.645 A 8.811 8.811 0 0 0 98.8 40.527 A 7.351 7.351 0 0 0 104.141 43.321 A 10.068 10.068 0 0 0 104.975 43.355 A 9.383 9.383 0 0 0 107.779 42.964 Q 110.676 42.059 111.945 39.058 A 9.771 9.771 0 0 0 112.19 38.415 L 122.005 38.415 A 17.83 17.83 0 0 1 119.543 44.023 A 15.991 15.991 0 0 1 116.09 47.71 A 16.039 16.039 0 0 1 108.968 50.819 A 22.008 22.008 0 0 1 105.04 51.155 Q 99.84 51.155 95.81 48.848 Q 91.78 46.54 89.505 42.348 A 18.587 18.587 0 0 1 87.499 36.243 A 24.299 24.299 0 0 1 87.23 32.565 Q 87.23 26.975 89.505 22.783 Q 91.78 18.59 95.81 16.283 A 17.508 17.508 0 0 1 102.782 14.089 A 21.815 21.815 0 0 1 105.04 13.975 A 22.018 22.018 0 0 1 110.054 14.517 A 15.79 15.79 0 0 1 116.123 17.322 Q 120.51 20.67 122.005 26.715 Z M 204.88 35.295 L 178.555 35.295 A 11.25 11.25 0 0 0 179.109 38.033 A 8.06 8.06 0 0 0 181.285 41.405 A 8.317 8.317 0 0 0 186.712 43.604 A 10.792 10.792 0 0 0 187.2 43.615 Q 191.977 43.615 194.157 39.749 A 9.899 9.899 0 0 0 194.415 39.26 L 204.23 39.26 Q 202.67 44.46 198.25 47.808 A 16.341 16.341 0 0 1 190.763 50.905 A 21.901 21.901 0 0 1 187.395 51.155 A 20.079 20.079 0 0 1 181.634 50.352 A 17.565 17.565 0 0 1 178.068 48.847 Q 173.94 46.54 171.633 42.315 A 18.783 18.783 0 0 1 169.528 35.731 A 23.949 23.949 0 0 1 169.325 32.565 Q 169.325 26.975 171.6 22.75 Q 173.875 18.525 177.97 16.25 A 18.027 18.027 0 0 1 184.495 14.155 A 22.761 22.761 0 0 1 187.395 13.975 Q 192.53 13.975 196.593 16.185 Q 200.655 18.395 202.898 22.458 A 18.001 18.001 0 0 1 204.982 29.073 A 22.672 22.672 0 0 1 205.14 31.785 A 25.147 25.147 0 0 1 205.076 33.624 A 18.357 18.357 0 0 1 204.88 35.295 Z M 287.95 35.295 L 261.625 35.295 A 11.25 11.25 0 0 0 262.179 38.033 A 8.06 8.06 0 0 0 264.355 41.405 A 8.317 8.317 0 0 0 269.782 43.604 A 10.792 10.792 0 0 0 270.27 43.615 Q 275.047 43.615 277.227 39.749 A 9.899 9.899 0 0 0 277.485 39.26 L 287.3 39.26 Q 285.74 44.46 281.32 47.808 A 16.341 16.341 0 0 1 273.833 50.905 A 21.901 21.901 0 0 1 270.465 51.155 A 20.079 20.079 0 0 1 264.704 50.352 A 17.565 17.565 0 0 1 261.138 48.847 Q 257.01 46.54 254.703 42.315 A 18.783 18.783 0 0 1 252.598 35.731 A 23.949 23.949 0 0 1 252.395 32.565 Q 252.395 26.975 254.67 22.75 Q 256.945 18.525 261.04 16.25 A 18.027 18.027 0 0 1 267.565 14.155 A 22.761 22.761 0 0 1 270.465 13.975 Q 275.6 13.975 279.663 16.185 Q 283.725 18.395 285.968 22.458 A 18.001 18.001 0 0 1 288.052 29.073 A 22.672 22.672 0 0 1 288.21 31.785 A 25.147 25.147 0 0 1 288.146 33.624 A 18.357 18.357 0 0 1 287.95 35.295 Z M 15.86 50.57 L 0 50.57 L 0 5.2 L 15.86 5.2 Q 23.01 5.2 28.438 7.995 Q 33.865 10.79 36.823 15.957 Q 39.78 21.125 39.78 27.95 A 26.634 26.634 0 0 1 39.086 34.158 A 21.141 21.141 0 0 1 36.822 39.877 Q 33.865 44.98 28.438 47.775 A 24.943 24.943 0 0 1 20.585 50.238 A 32.481 32.481 0 0 1 15.86 50.57 Z M 15.535 12.87 L 9.1 12.87 L 9.1 42.835 L 15.535 42.835 Q 21.109 42.835 24.707 40.465 A 11.919 11.919 0 0 0 26.585 38.935 Q 30.291 35.229 30.475 28.648 A 24.895 24.895 0 0 0 30.485 27.95 Q 30.485 21.891 27.633 18.09 A 12.448 12.448 0 0 0 26.585 16.868 A 12.683 12.683 0 0 0 20.625 13.48 Q 18.615 12.946 16.225 12.88 A 24.743 24.743 0 0 0 15.535 12.87 Z M 196.885 11.895 L 187.265 6.435 L 177.58 11.895 L 177.58 5.265 L 187.265 0 L 196.885 5.265 L 196.885 11.895 Z M 178.62 29.185 L 195.715 29.185 A 8.215 8.215 0 0 0 195.232 26.473 A 6.959 6.959 0 0 0 193.18 23.563 A 8.758 8.758 0 0 0 188.065 21.487 A 11.401 11.401 0 0 0 187.135 21.45 A 9.217 9.217 0 0 0 184.202 21.9 A 7.86 7.86 0 0 0 181.447 23.497 A 8.248 8.248 0 0 0 179.12 27.066 A 11.551 11.551 0 0 0 178.62 29.185 Z M 261.69 29.185 L 278.785 29.185 A 8.215 8.215 0 0 0 278.302 26.473 A 6.959 6.959 0 0 0 276.25 23.563 A 8.758 8.758 0 0 0 271.135 21.487 A 11.401 11.401 0 0 0 270.205 21.45 A 9.217 9.217 0 0 0 267.272 21.9 A 7.86 7.86 0 0 0 264.517 23.497 A 8.248 8.248 0 0 0 262.19 27.066 A 11.551 11.551 0 0 0 261.69 29.185 Z"
        fill="#334155"
        transform="translate(513, 99)"
      />
    </g>
    <!-- #endregion -->

    <!-- #region description -->
    <g class="animate-fade-in-bottom description">
      <!-- <path
        d="M259.328 188V176.08H266.88V177.52H260.896V181.376H266.32V182.816H260.896V188H259.328ZM267.996 188V179.376H269.452V180.96L269.292 180.736C269.494 180.245 269.804 179.883 270.22 179.648C270.636 179.403 271.142 179.28 271.74 179.28H272.268V180.688H271.516C270.908 180.688 270.417 180.88 270.044 181.264C269.67 181.637 269.484 182.171 269.484 182.864V188H267.996ZM277.558 188.192C276.726 188.192 275.984 187.995 275.334 187.6C274.683 187.205 274.171 186.667 273.798 185.984C273.424 185.291 273.238 184.517 273.238 183.664C273.238 182.8 273.419 182.032 273.782 181.36C274.155 180.688 274.656 180.16 275.286 179.776C275.926 179.381 276.64 179.184 277.43 179.184C278.07 179.184 278.635 179.301 279.126 179.536C279.627 179.76 280.048 180.069 280.39 180.464C280.742 180.848 281.008 181.291 281.19 181.792C281.382 182.283 281.477 182.795 281.477 183.328C281.477 183.445 281.467 183.579 281.446 183.728C281.435 183.867 281.419 184 281.398 184.128H274.326V182.848H280.534L279.83 183.424C279.926 182.869 279.872 182.373 279.67 181.936C279.467 181.499 279.168 181.152 278.774 180.896C278.379 180.64 277.931 180.512 277.43 180.512C276.928 180.512 276.47 180.64 276.054 180.896C275.638 181.152 275.312 181.52 275.078 182C274.854 182.469 274.763 183.029 274.806 183.68C274.763 184.309 274.859 184.864 275.094 185.344C275.339 185.813 275.68 186.181 276.118 186.448C276.566 186.704 277.051 186.832 277.574 186.832C278.15 186.832 278.635 186.699 279.03 186.432C279.424 186.165 279.744 185.824 279.99 185.408L281.238 186.048C281.067 186.443 280.8 186.805 280.438 187.136C280.086 187.456 279.664 187.712 279.174 187.904C278.694 188.096 278.155 188.192 277.558 188.192ZM287.386 188.192C286.554 188.192 285.812 187.995 285.162 187.6C284.511 187.205 283.999 186.667 283.626 185.984C283.252 185.291 283.066 184.517 283.066 183.664C283.066 182.8 283.247 182.032 283.61 181.36C283.983 180.688 284.484 180.16 285.114 179.776C285.754 179.381 286.468 179.184 287.258 179.184C287.898 179.184 288.463 179.301 288.954 179.536C289.455 179.76 289.876 180.069 290.218 180.464C290.57 180.848 290.836 181.291 291.018 181.792C291.21 182.283 291.306 182.795 291.306 183.328C291.306 183.445 291.295 183.579 291.274 183.728C291.263 183.867 291.247 184 291.226 184.128H284.154V182.848H290.362L289.658 183.424C289.754 182.869 289.7 182.373 289.498 181.936C289.295 181.499 288.996 181.152 288.602 180.896C288.207 180.64 287.759 180.512 287.258 180.512C286.756 180.512 286.298 180.64 285.882 180.896C285.466 181.152 285.14 181.52 284.906 182C284.682 182.469 284.591 183.029 284.634 183.68C284.591 184.309 284.687 184.864 284.922 185.344C285.167 185.813 285.508 186.181 285.946 186.448C286.394 186.704 286.879 186.832 287.402 186.832C287.978 186.832 288.463 186.699 288.858 186.432C289.252 186.165 289.572 185.824 289.818 185.408L291.066 186.048C290.895 186.443 290.628 186.805 290.266 187.136C289.914 187.456 289.492 187.712 289.002 187.904C288.522 188.096 287.983 188.192 287.386 188.192ZM293.246 188V175.888H294.734V188H293.246ZM299.571 188.192C299.005 188.192 298.504 188.091 298.067 187.888C297.64 187.675 297.304 187.387 297.059 187.024C296.813 186.651 296.691 186.224 296.691 185.744C296.691 185.285 296.787 184.875 296.979 184.512C297.181 184.139 297.491 183.824 297.907 183.568C298.333 183.312 298.867 183.131 299.507 183.024L302.707 182.496V183.744L299.843 184.224C299.288 184.32 298.883 184.496 298.627 184.752C298.381 185.008 298.259 185.323 298.259 185.696C298.259 186.048 298.397 186.341 298.675 186.576C298.963 186.811 299.32 186.928 299.747 186.928C300.291 186.928 300.76 186.816 301.155 186.592C301.56 186.357 301.875 186.043 302.099 185.648C302.333 185.253 302.451 184.816 302.451 184.336V182.144C302.451 181.675 302.275 181.296 301.923 181.008C301.581 180.709 301.128 180.56 300.563 180.56C300.072 180.56 299.635 180.688 299.251 180.944C298.877 181.189 298.6 181.52 298.419 181.936L297.123 181.264C297.283 180.869 297.539 180.517 297.891 180.208C298.243 179.888 298.653 179.637 299.123 179.456C299.592 179.275 300.083 179.184 300.595 179.184C301.256 179.184 301.837 179.312 302.339 179.568C302.84 179.813 303.229 180.16 303.507 180.608C303.795 181.045 303.939 181.557 303.939 182.144V188H302.483V186.368L302.755 186.464C302.573 186.805 302.328 187.104 302.019 187.36C301.709 187.616 301.347 187.819 300.931 187.968C300.515 188.117 300.061 188.192 299.571 188.192ZM306.246 188V179.376H307.702V181.056L307.462 180.912C307.675 180.368 308.016 179.947 308.486 179.648C308.966 179.339 309.526 179.184 310.166 179.184C310.784 179.184 311.334 179.323 311.814 179.6C312.304 179.877 312.688 180.261 312.966 180.752C313.254 181.243 313.398 181.797 313.398 182.416V188H311.894V182.896C311.894 182.416 311.808 182.011 311.638 181.68C311.467 181.349 311.222 181.093 310.902 180.912C310.592 180.72 310.235 180.624 309.83 180.624C309.424 180.624 309.062 180.72 308.742 180.912C308.432 181.093 308.187 181.355 308.006 181.696C307.824 182.027 307.734 182.427 307.734 182.896V188H306.246ZM319.527 188.192C318.684 188.192 317.932 187.995 317.271 187.6C316.62 187.205 316.108 186.667 315.735 185.984C315.362 185.301 315.175 184.533 315.175 183.68C315.175 182.816 315.362 182.048 315.735 181.376C316.108 180.704 316.62 180.171 317.271 179.776C317.932 179.381 318.684 179.184 319.527 179.184C320.092 179.184 320.62 179.285 321.111 179.488C321.602 179.691 322.034 179.963 322.407 180.304C322.78 180.645 323.052 181.045 323.223 181.504L321.895 182.144C321.692 181.696 321.383 181.333 320.967 181.056C320.551 180.768 320.071 180.624 319.527 180.624C319.004 180.624 318.53 180.757 318.103 181.024C317.687 181.291 317.356 181.653 317.111 182.112C316.866 182.571 316.743 183.099 316.743 183.696C316.743 184.272 316.866 184.795 317.111 185.264C317.356 185.723 317.687 186.085 318.103 186.352C318.53 186.619 319.004 186.752 319.527 186.752C320.071 186.752 320.551 186.613 320.967 186.336C321.383 186.048 321.692 185.669 321.895 185.2L323.223 185.872C323.052 186.32 322.78 186.72 322.407 187.072C322.034 187.413 321.602 187.685 321.111 187.888C320.62 188.091 320.092 188.192 319.527 188.192ZM329.136 188.192C328.304 188.192 327.562 187.995 326.912 187.6C326.261 187.205 325.749 186.667 325.376 185.984C325.002 185.291 324.816 184.517 324.816 183.664C324.816 182.8 324.997 182.032 325.36 181.36C325.733 180.688 326.234 180.16 326.864 179.776C327.504 179.381 328.218 179.184 329.008 179.184C329.648 179.184 330.213 179.301 330.704 179.536C331.205 179.76 331.626 180.069 331.968 180.464C332.32 180.848 332.586 181.291 332.768 181.792C332.96 182.283 333.056 182.795 333.056 183.328C333.056 183.445 333.045 183.579 333.024 183.728C333.013 183.867 332.997 184 332.976 184.128H325.904V182.848H332.112L331.408 183.424C331.504 182.869 331.45 182.373 331.248 181.936C331.045 181.499 330.746 181.152 330.352 180.896C329.957 180.64 329.509 180.512 329.008 180.512C328.506 180.512 328.048 180.64 327.632 180.896C327.216 181.152 326.89 181.52 326.656 182C326.432 182.469 326.341 183.029 326.384 183.68C326.341 184.309 326.437 184.864 326.672 185.344C326.917 185.813 327.258 186.181 327.696 186.448C328.144 186.704 328.629 186.832 329.152 186.832C329.728 186.832 330.213 186.699 330.608 186.432C331.002 186.165 331.322 185.824 331.568 185.408L332.816 186.048C332.645 186.443 332.378 186.805 332.016 187.136C331.664 187.456 331.242 187.712 330.752 187.904C330.272 188.096 329.733 188.192 329.136 188.192ZM334.996 188V179.376H336.452V180.96L336.292 180.736C336.494 180.245 336.804 179.883 337.22 179.648C337.636 179.403 338.142 179.28 338.74 179.28H339.268V180.688H338.516C337.908 180.688 337.417 180.88 337.044 181.264C336.67 181.637 336.484 182.171 336.484 182.864V188H334.996ZM343.963 184.656V182.736H345.515V184.656H343.963ZM351.375 188V176.08H358.927V177.52H352.943V181.376H358.367V182.816H352.943V188H351.375ZM360.043 188V179.376H361.499V180.96L361.339 180.736C361.541 180.245 361.851 179.883 362.267 179.648C362.683 179.403 363.189 179.28 363.787 179.28H364.315V180.688H363.563C362.955 180.688 362.464 180.88 362.091 181.264C361.717 181.637 361.531 182.171 361.531 182.864V188H360.043ZM369.732 188.192C368.9 188.192 368.148 188 367.476 187.616C366.804 187.221 366.271 186.683 365.876 186C365.482 185.317 365.284 184.544 365.284 183.68C365.284 182.816 365.476 182.048 365.86 181.376C366.255 180.704 366.788 180.171 367.46 179.776C368.132 179.381 368.89 179.184 369.732 179.184C370.564 179.184 371.316 179.381 371.988 179.776C372.66 180.16 373.188 180.688 373.572 181.36C373.967 182.032 374.164 182.805 374.164 183.68C374.164 184.555 373.962 185.333 373.556 186.016C373.151 186.688 372.612 187.221 371.94 187.616C371.279 188 370.543 188.192 369.732 188.192ZM369.732 186.752C370.266 186.752 370.746 186.619 371.172 186.352C371.61 186.085 371.951 185.717 372.196 185.248C372.452 184.779 372.58 184.256 372.58 183.68C372.58 183.093 372.452 182.576 372.196 182.128C371.951 181.669 371.61 181.307 371.172 181.04C370.746 180.763 370.266 180.624 369.732 180.624C369.188 180.624 368.698 180.763 368.26 181.04C367.834 181.307 367.492 181.669 367.236 182.128C366.98 182.576 366.852 183.093 366.852 183.68C366.852 184.256 366.98 184.779 367.236 185.248C367.492 185.717 367.834 186.085 368.26 186.352C368.698 186.619 369.188 186.752 369.732 186.752ZM376.105 188V179.376H377.561V181.056L377.321 180.912C377.534 180.368 377.876 179.947 378.345 179.648C378.825 179.339 379.385 179.184 380.025 179.184C380.644 179.184 381.193 179.323 381.673 179.6C382.164 179.877 382.548 180.261 382.825 180.752C383.113 181.243 383.257 181.797 383.257 182.416V188H381.753V182.896C381.753 182.416 381.668 182.011 381.497 181.68C381.326 181.349 381.081 181.093 380.761 180.912C380.452 180.72 380.094 180.624 379.689 180.624C379.284 180.624 378.921 180.72 378.601 180.912C378.292 181.093 378.046 181.355 377.865 181.696C377.684 182.027 377.593 182.427 377.593 182.896V188H376.105ZM388.89 188.096C388.048 188.096 387.397 187.856 386.938 187.376C386.49 186.896 386.266 186.219 386.266 185.344V180.8H384.698V179.376H385.018C385.402 179.376 385.706 179.259 385.93 179.024C386.154 178.789 386.266 178.48 386.266 178.096V177.392H387.754V179.376H389.69V180.8H387.754V185.296C387.754 185.584 387.797 185.835 387.882 186.048C387.978 186.261 388.133 186.432 388.346 186.56C388.56 186.677 388.842 186.736 389.194 186.736C389.269 186.736 389.36 186.731 389.466 186.72C389.584 186.709 389.69 186.699 389.786 186.688V188C389.648 188.032 389.493 188.053 389.322 188.064C389.152 188.085 389.008 188.096 388.89 188.096ZM391.842 184.368V183.008H397.842V184.368H391.842ZM400.422 188V176.08H408.182V177.52H401.99V181.296H407.862V182.736H401.99V186.56H408.182V188H400.422ZM409.949 188V179.376H411.405V181.056L411.165 180.912C411.378 180.368 411.72 179.947 412.189 179.648C412.669 179.339 413.229 179.184 413.869 179.184C414.488 179.184 415.037 179.323 415.517 179.6C416.008 179.877 416.392 180.261 416.669 180.752C416.957 181.243 417.101 181.797 417.101 182.416V188H415.597V182.896C415.597 182.416 415.512 182.011 415.341 181.68C415.17 181.349 414.925 181.093 414.605 180.912C414.296 180.72 413.938 180.624 413.533 180.624C413.128 180.624 412.765 180.72 412.445 180.912C412.136 181.093 411.89 181.355 411.709 181.696C411.528 182.027 411.437 182.427 411.437 182.896V188H409.949ZM423.15 188.192C422.339 188.192 421.609 187.995 420.958 187.6C420.318 187.205 419.811 186.667 419.438 185.984C419.065 185.301 418.878 184.539 418.878 183.696C418.878 182.832 419.065 182.064 419.438 181.392C419.811 180.709 420.318 180.171 420.958 179.776C421.609 179.381 422.339 179.184 423.15 179.184C423.865 179.184 424.499 179.339 425.054 179.648C425.609 179.947 426.046 180.352 426.366 180.864L426.126 181.232V175.888H427.63V188H426.174V186.16L426.366 186.416C426.067 186.981 425.63 187.419 425.054 187.728C424.489 188.037 423.854 188.192 423.15 188.192ZM423.278 186.752C423.822 186.752 424.307 186.619 424.734 186.352C425.161 186.085 425.497 185.723 425.742 185.264C425.998 184.795 426.126 184.272 426.126 183.696C426.126 183.109 425.998 182.587 425.742 182.128C425.497 181.659 425.161 181.291 424.734 181.024C424.307 180.757 423.822 180.624 423.278 180.624C422.745 180.624 422.259 180.763 421.822 181.04C421.395 181.307 421.059 181.669 420.814 182.128C420.569 182.576 420.446 183.099 420.446 183.696C420.446 184.272 420.569 184.795 420.814 185.264C421.059 185.723 421.395 186.085 421.822 186.352C422.249 186.619 422.734 186.752 423.278 186.752ZM432.875 188V176.08H436.779C437.984 176.08 439.035 176.325 439.931 176.816C440.827 177.307 441.52 178 442.011 178.896C442.502 179.781 442.747 180.827 442.747 182.032C442.747 183.227 442.502 184.272 442.011 185.168C441.52 186.064 440.827 186.763 439.931 187.264C439.035 187.755 437.984 188 436.779 188H432.875ZM434.443 186.56H436.795C437.68 186.56 438.443 186.373 439.083 186C439.734 185.627 440.235 185.104 440.587 184.432C440.939 183.749 441.115 182.949 441.115 182.032C441.115 181.104 440.934 180.304 440.571 179.632C440.219 178.96 439.718 178.443 439.067 178.08C438.427 177.707 437.67 177.52 436.795 177.52H434.443V186.56ZM448.526 188.192C447.694 188.192 446.953 187.995 446.302 187.6C445.652 187.205 445.14 186.667 444.766 185.984C444.393 185.291 444.206 184.517 444.206 183.664C444.206 182.8 444.388 182.032 444.75 181.36C445.124 180.688 445.625 180.16 446.254 179.776C446.894 179.381 447.609 179.184 448.398 179.184C449.038 179.184 449.604 179.301 450.094 179.536C450.596 179.76 451.017 180.069 451.358 180.464C451.71 180.848 451.977 181.291 452.158 181.792C452.35 182.283 452.446 182.795 452.446 183.328C452.446 183.445 452.436 183.579 452.414 183.728C452.404 183.867 452.388 184 452.366 184.128H445.294V182.848H451.502L450.798 183.424C450.894 182.869 450.841 182.373 450.638 181.936C450.436 181.499 450.137 181.152 449.742 180.896C449.348 180.64 448.9 180.512 448.398 180.512C447.897 180.512 447.438 180.64 447.022 180.896C446.606 181.152 446.281 181.52 446.046 182C445.822 182.469 445.732 183.029 445.774 183.68C445.732 184.309 445.828 184.864 446.062 185.344C446.308 185.813 446.649 186.181 447.086 186.448C447.534 186.704 448.02 186.832 448.542 186.832C449.118 186.832 449.604 186.699 449.998 186.432C450.393 186.165 450.713 185.824 450.958 185.408L452.206 186.048C452.036 186.443 451.769 186.805 451.406 187.136C451.054 187.456 450.633 187.712 450.142 187.904C449.662 188.096 449.124 188.192 448.526 188.192ZM456.63 188L453.254 179.376H454.918L457.622 186.672H457.046L459.766 179.376H461.43L458.038 188H456.63ZM466.573 188.192C465.741 188.192 465 187.995 464.349 187.6C463.698 187.205 463.186 186.667 462.813 185.984C462.44 185.291 462.253 184.517 462.253 183.664C462.253 182.8 462.434 182.032 462.797 181.36C463.17 180.688 463.672 180.16 464.301 179.776C464.941 179.381 465.656 179.184 466.445 179.184C467.085 179.184 467.65 179.301 468.141 179.536C468.642 179.76 469.064 180.069 469.405 180.464C469.757 180.848 470.024 181.291 470.205 181.792C470.397 182.283 470.493 182.795 470.493 183.328C470.493 183.445 470.482 183.579 470.461 183.728C470.45 183.867 470.434 184 470.413 184.128H463.341V182.848H469.549L468.845 183.424C468.941 182.869 468.888 182.373 468.685 181.936C468.482 181.499 468.184 181.152 467.789 180.896C467.394 180.64 466.946 180.512 466.445 180.512C465.944 180.512 465.485 180.64 465.069 180.896C464.653 181.152 464.328 181.52 464.093 182C463.869 182.469 463.778 183.029 463.821 183.68C463.778 184.309 463.874 184.864 464.109 185.344C464.354 185.813 464.696 186.181 465.133 186.448C465.581 186.704 466.066 186.832 466.589 186.832C467.165 186.832 467.65 186.699 468.045 186.432C468.44 186.165 468.76 185.824 469.005 185.408L470.253 186.048C470.082 186.443 469.816 186.805 469.453 187.136C469.101 187.456 468.68 187.712 468.189 187.904C467.709 188.096 467.17 188.192 466.573 188.192ZM472.433 188V175.888H473.921V188H472.433ZM480.326 188.192C479.494 188.192 478.742 188 478.07 187.616C477.398 187.221 476.865 186.683 476.47 186C476.075 185.317 475.878 184.544 475.878 183.68C475.878 182.816 476.07 182.048 476.454 181.376C476.849 180.704 477.382 180.171 478.054 179.776C478.726 179.381 479.483 179.184 480.326 179.184C481.158 179.184 481.91 179.381 482.582 179.776C483.254 180.16 483.782 180.688 484.166 181.36C484.561 182.032 484.758 182.805 484.758 183.68C484.758 184.555 484.555 185.333 484.15 186.016C483.745 186.688 483.206 187.221 482.534 187.616C481.873 188 481.137 188.192 480.326 188.192ZM480.326 186.752C480.859 186.752 481.339 186.619 481.766 186.352C482.203 186.085 482.545 185.717 482.79 185.248C483.046 184.779 483.174 184.256 483.174 183.68C483.174 183.093 483.046 182.576 482.79 182.128C482.545 181.669 482.203 181.307 481.766 181.04C481.339 180.763 480.859 180.624 480.326 180.624C479.782 180.624 479.291 180.763 478.854 181.04C478.427 181.307 478.086 181.669 477.83 182.128C477.574 182.576 477.446 183.093 477.446 183.68C477.446 184.256 477.574 184.779 477.83 185.248C478.086 185.717 478.427 186.085 478.854 186.352C479.291 186.619 479.782 186.752 480.326 186.752ZM486.699 191.2V179.376H488.155V181.232L487.963 180.864C488.283 180.352 488.72 179.947 489.275 179.648C489.83 179.339 490.464 179.184 491.179 179.184C491.99 179.184 492.715 179.381 493.355 179.776C494.006 180.171 494.518 180.709 494.891 181.392C495.264 182.064 495.451 182.832 495.451 183.696C495.451 184.539 495.264 185.301 494.891 185.984C494.518 186.667 494.006 187.205 493.355 187.6C492.715 187.995 491.984 188.192 491.163 188.192C490.47 188.192 489.835 188.037 489.259 187.728C488.694 187.419 488.256 186.981 487.947 186.416L488.187 186.16V191.2H486.699ZM491.051 186.752C491.595 186.752 492.08 186.619 492.507 186.352C492.934 186.085 493.264 185.723 493.499 185.264C493.744 184.795 493.867 184.272 493.867 183.696C493.867 183.099 493.744 182.576 493.499 182.128C493.264 181.669 492.934 181.307 492.507 181.04C492.08 180.763 491.595 180.624 491.051 180.624C490.507 180.624 490.016 180.757 489.579 181.024C489.152 181.291 488.811 181.659 488.555 182.128C488.31 182.587 488.187 183.109 488.187 183.696C488.187 184.272 488.31 184.795 488.555 185.264C488.811 185.723 489.152 186.085 489.579 186.352C490.016 186.619 490.507 186.752 491.051 186.752ZM501.37 188.192C500.538 188.192 499.797 187.995 499.146 187.6C498.495 187.205 497.983 186.667 497.61 185.984C497.237 185.291 497.05 184.517 497.05 183.664C497.05 182.8 497.231 182.032 497.594 181.36C497.967 180.688 498.469 180.16 499.098 179.776C499.738 179.381 500.453 179.184 501.242 179.184C501.882 179.184 502.447 179.301 502.938 179.536C503.439 179.76 503.861 180.069 504.202 180.464C504.554 180.848 504.821 181.291 505.002 181.792C505.194 182.283 505.29 182.795 505.29 183.328C505.29 183.445 505.279 183.579 505.258 183.728C505.247 183.867 505.231 184 505.21 184.128H498.138V182.848H504.346L503.642 183.424C503.738 182.869 503.685 182.373 503.482 181.936C503.279 181.499 502.981 181.152 502.586 180.896C502.191 180.64 501.743 180.512 501.242 180.512C500.741 180.512 500.282 180.64 499.866 180.896C499.45 181.152 499.125 181.52 498.89 182C498.666 182.469 498.575 183.029 498.618 183.68C498.575 184.309 498.671 184.864 498.906 185.344C499.151 185.813 499.493 186.181 499.93 186.448C500.378 186.704 500.863 186.832 501.386 186.832C501.962 186.832 502.447 186.699 502.842 186.432C503.237 186.165 503.557 185.824 503.802 185.408L505.05 186.048C504.879 186.443 504.613 186.805 504.25 187.136C503.898 187.456 503.477 187.712 502.986 187.904C502.506 188.096 501.967 188.192 501.37 188.192ZM507.23 188V179.376H508.686V180.96L508.526 180.736C508.729 180.245 509.038 179.883 509.454 179.648C509.87 179.403 510.377 179.28 510.974 179.28H511.502V180.688H510.75C510.142 180.688 509.651 180.88 509.278 181.264C508.905 181.637 508.718 182.171 508.718 182.864V188H507.23ZM516.198 184.656V182.736H517.75V184.656H516.198ZM527.929 188.192C527.065 188.192 526.297 188.011 525.625 187.648C524.964 187.285 524.447 186.789 524.073 186.16C523.711 185.52 523.529 184.795 523.529 183.984V176.08H525.113V183.952C525.113 184.496 525.231 184.981 525.465 185.408C525.711 185.824 526.041 186.149 526.457 186.384C526.884 186.619 527.375 186.736 527.929 186.736C528.484 186.736 528.969 186.619 529.385 186.384C529.812 186.149 530.143 185.824 530.377 185.408C530.623 184.981 530.745 184.496 530.745 183.952V176.08H532.329V183.984C532.329 184.795 532.143 185.52 531.769 186.16C531.407 186.789 530.895 187.285 530.233 187.648C529.572 188.011 528.804 188.192 527.929 188.192ZM534.906 188V176.08H536.474V188H534.906ZM537.909 189.92L543.285 176.736H544.965L539.589 189.92H537.909ZM550.726 188.192C549.862 188.192 549.094 188.011 548.422 187.648C547.761 187.285 547.243 186.789 546.87 186.16C546.507 185.52 546.326 184.795 546.326 183.984V176.08H547.91V183.952C547.91 184.496 548.027 184.981 548.262 185.408C548.507 185.824 548.838 186.149 549.254 186.384C549.681 186.619 550.171 186.736 550.726 186.736C551.281 186.736 551.766 186.619 552.182 186.384C552.609 186.149 552.939 185.824 553.174 185.408C553.419 184.981 553.542 184.496 553.542 183.952V176.08H555.126V183.984C555.126 184.795 554.939 185.52 554.566 186.16C554.203 186.789 553.691 187.285 553.03 187.648C552.369 188.011 551.601 188.192 550.726 188.192ZM556.551 188L560.439 181.952L556.647 176.08H558.439L561.655 181.088H560.983L564.199 176.08H565.991L562.199 181.952L566.087 188H564.295L560.983 182.816H561.655L558.327 188H556.551ZM570.359 188V176.08H574.263C575.469 176.08 576.519 176.325 577.415 176.816C578.311 177.307 579.005 178 579.495 178.896C579.986 179.781 580.231 180.827 580.231 182.032C580.231 183.227 579.986 184.272 579.495 185.168C579.005 186.064 578.311 186.763 577.415 187.264C576.519 187.755 575.469 188 574.263 188H570.359ZM571.927 186.56H574.279C575.165 186.56 575.927 186.373 576.567 186C577.218 185.627 577.719 185.104 578.071 184.432C578.423 183.749 578.599 182.949 578.599 182.032C578.599 181.104 578.418 180.304 578.055 179.632C577.703 178.96 577.202 178.443 576.551 178.08C575.911 177.707 575.154 177.52 574.279 177.52H571.927V186.56ZM586.011 188.192C585.179 188.192 584.437 187.995 583.787 187.6C583.136 187.205 582.624 186.667 582.251 185.984C581.877 185.291 581.691 184.517 581.691 183.664C581.691 182.8 581.872 182.032 582.235 181.36C582.608 180.688 583.109 180.16 583.739 179.776C584.379 179.381 585.093 179.184 585.883 179.184C586.523 179.184 587.088 179.301 587.579 179.536C588.08 179.76 588.501 180.069 588.843 180.464C589.195 180.848 589.461 181.291 589.643 181.792C589.835 182.283 589.931 182.795 589.931 183.328C589.931 183.445 589.92 183.579 589.899 183.728C589.888 183.867 589.872 184 589.851 184.128H582.779V182.848H588.987L588.283 183.424C588.379 182.869 588.325 182.373 588.123 181.936C587.92 181.499 587.621 181.152 587.227 180.896C586.832 180.64 586.384 180.512 585.883 180.512C585.381 180.512 584.923 180.64 584.507 180.896C584.091 181.152 583.765 181.52 583.531 182C583.307 182.469 583.216 183.029 583.259 183.68C583.216 184.309 583.312 184.864 583.547 185.344C583.792 185.813 584.133 186.181 584.571 186.448C585.019 186.704 585.504 186.832 586.027 186.832C586.603 186.832 587.088 186.699 587.483 186.432C587.877 186.165 588.197 185.824 588.443 185.408L589.691 186.048C589.52 186.443 589.253 186.805 588.891 187.136C588.539 187.456 588.117 187.712 587.627 187.904C587.147 188.096 586.608 188.192 586.011 188.192ZM594.959 188.192C594.095 188.192 593.343 187.979 592.703 187.552C592.063 187.125 591.609 186.549 591.343 185.824L592.527 185.248C592.772 185.76 593.108 186.165 593.535 186.464C593.961 186.763 594.436 186.912 594.959 186.912C595.428 186.912 595.817 186.8 596.127 186.576C596.436 186.352 596.591 186.059 596.591 185.696C596.591 185.44 596.516 185.237 596.367 185.088C596.228 184.928 596.057 184.805 595.855 184.72C595.652 184.624 595.465 184.555 595.295 184.512L593.999 184.144C593.22 183.92 592.649 183.6 592.287 183.184C591.935 182.768 591.759 182.283 591.759 181.728C591.759 181.216 591.887 180.773 592.143 180.4C592.409 180.016 592.767 179.717 593.215 179.504C593.673 179.291 594.185 179.184 594.751 179.184C595.508 179.184 596.185 179.376 596.783 179.76C597.391 180.144 597.823 180.683 598.079 181.376L596.863 181.936C596.671 181.488 596.383 181.136 595.999 180.88C595.615 180.613 595.183 180.48 594.703 180.48C594.265 180.48 593.919 180.592 593.663 180.816C593.407 181.029 593.279 181.301 593.279 181.632C593.279 181.877 593.343 182.08 593.471 182.24C593.599 182.389 593.753 182.507 593.935 182.592C594.116 182.667 594.292 182.731 594.463 182.784L595.871 183.2C596.575 183.403 597.119 183.717 597.503 184.144C597.897 184.571 598.095 185.083 598.095 185.68C598.095 186.16 597.961 186.592 597.695 186.976C597.428 187.36 597.06 187.659 596.591 187.872C596.121 188.085 595.577 188.192 594.959 188.192ZM600.043 188V179.376H601.531V188H600.043ZM600.043 178V176.08H601.531V178H600.043ZM607.952 191.52C607.344 191.52 606.778 191.424 606.256 191.232C605.744 191.04 605.301 190.773 604.928 190.432C604.565 190.101 604.288 189.712 604.096 189.264L605.488 188.624C605.637 189.029 605.92 189.371 606.336 189.648C606.762 189.936 607.296 190.08 607.936 190.08C608.426 190.08 608.869 189.984 609.264 189.792C609.669 189.611 609.989 189.333 610.224 188.96C610.458 188.597 610.576 188.155 610.576 187.632V185.696L610.848 185.984C610.549 186.571 610.117 187.019 609.552 187.328C608.997 187.637 608.384 187.792 607.712 187.792C606.901 187.792 606.176 187.605 605.536 187.232C604.896 186.848 604.394 186.331 604.032 185.68C603.669 185.019 603.488 184.288 603.488 183.488C603.488 182.677 603.669 181.947 604.032 181.296C604.394 180.645 604.89 180.133 605.52 179.76C606.16 179.376 606.885 179.184 607.696 179.184C608.368 179.184 608.976 179.339 609.52 179.648C610.074 179.947 610.517 180.363 610.848 180.896L610.624 181.296V179.376H612.08V187.632C612.08 188.379 611.904 189.045 611.552 189.632C611.2 190.219 610.709 190.677 610.08 191.008C609.461 191.349 608.752 191.52 607.952 191.52ZM607.84 186.352C608.352 186.352 608.81 186.224 609.216 185.968C609.632 185.712 609.962 185.371 610.208 184.944C610.453 184.507 610.576 184.021 610.576 183.488C610.576 182.965 610.453 182.485 610.208 182.048C609.962 181.611 609.632 181.264 609.216 181.008C608.81 180.752 608.352 180.624 607.84 180.624C607.317 180.624 606.842 180.752 606.416 181.008C605.989 181.264 605.653 181.611 605.408 182.048C605.173 182.475 605.056 182.955 605.056 183.488C605.056 184.021 605.173 184.507 605.408 184.944C605.653 185.371 605.984 185.712 606.4 185.968C606.826 186.224 607.306 186.352 607.84 186.352ZM614.386 188V179.376H615.842V181.056L615.602 180.912C615.816 180.368 616.157 179.947 616.626 179.648C617.106 179.339 617.666 179.184 618.306 179.184C618.925 179.184 619.474 179.323 619.954 179.6C620.445 179.877 620.829 180.261 621.106 180.752C621.394 181.243 621.538 181.797 621.538 182.416V188H620.034V182.896C620.034 182.416 619.949 182.011 619.778 181.68C619.608 181.349 619.362 181.093 619.042 180.912C618.733 180.72 618.376 180.624 617.97 180.624C617.565 180.624 617.202 180.72 616.882 180.912C616.573 181.093 616.328 181.355 616.146 181.696C615.965 182.027 615.874 182.427 615.874 182.896V188H614.386ZM627.636 188.192C626.804 188.192 626.062 187.995 625.412 187.6C624.761 187.205 624.249 186.667 623.876 185.984C623.502 185.291 623.316 184.517 623.316 183.664C623.316 182.8 623.497 182.032 623.86 181.36C624.233 180.688 624.734 180.16 625.364 179.776C626.004 179.381 626.718 179.184 627.508 179.184C628.148 179.184 628.713 179.301 629.204 179.536C629.705 179.76 630.126 180.069 630.468 180.464C630.82 180.848 631.086 181.291 631.268 181.792C631.46 182.283 631.556 182.795 631.556 183.328C631.556 183.445 631.545 183.579 631.524 183.728C631.513 183.867 631.497 184 631.476 184.128H624.404V182.848H630.612L629.908 183.424C630.004 182.869 629.95 182.373 629.748 181.936C629.545 181.499 629.246 181.152 628.852 180.896C628.457 180.64 628.009 180.512 627.508 180.512C627.006 180.512 626.548 180.64 626.132 180.896C625.716 181.152 625.39 181.52 625.156 182C624.932 182.469 624.841 183.029 624.884 183.68C624.841 184.309 624.937 184.864 625.172 185.344C625.417 185.813 625.758 186.181 626.196 186.448C626.644 186.704 627.129 186.832 627.652 186.832C628.228 186.832 628.713 186.699 629.108 186.432C629.502 186.165 629.822 185.824 630.068 185.408L631.316 186.048C631.145 186.443 630.878 186.805 630.516 187.136C630.164 187.456 629.742 187.712 629.252 187.904C628.772 188.096 628.233 188.192 627.636 188.192ZM633.496 188V179.376H634.952V180.96L634.792 180.736C634.994 180.245 635.304 179.883 635.72 179.648C636.136 179.403 636.642 179.28 637.24 179.28H637.768V180.688H637.016C636.408 180.688 635.917 180.88 635.544 181.264C635.17 181.637 634.984 182.171 634.984 182.864V188H633.496Z"
        fill="#64748b"
      /> -->
      <path
        d="M 147.75 8.625 L 149.205 8.625 Q 149.28 9.36 149.812 9.863 A 1.7 1.7 0 0 0 150.467 10.239 Q 150.731 10.325 151.051 10.352 A 3.693 3.693 0 0 0 151.365 10.365 Q 152.14 10.365 152.654 10.057 A 1.753 1.753 0 0 0 152.903 9.878 A 1.567 1.567 0 0 0 153.462 8.743 A 1.996 1.996 0 0 0 153.465 8.625 A 1.778 1.778 0 0 0 153.415 8.193 A 1.277 1.277 0 0 0 153.135 7.65 A 2.093 2.093 0 0 0 152.371 7.105 A 2.446 2.446 0 0 0 152.31 7.08 A 7.588 7.588 0 0 0 151.967 6.955 Q 151.58 6.824 151.051 6.681 A 24.39 24.39 0 0 0 150.975 6.66 A 18.343 18.343 0 0 1 150.368 6.491 Q 149.745 6.306 149.318 6.12 A 2.637 2.637 0 0 1 148.337 5.378 A 3.128 3.128 0 0 1 148.253 5.273 Q 147.864 4.765 147.817 3.951 A 3.991 3.991 0 0 1 147.81 3.72 Q 147.81 2.865 148.245 2.205 A 2.763 2.763 0 0 1 149.23 1.305 A 3.398 3.398 0 0 1 149.468 1.185 Q 150.255 0.825 151.275 0.825 Q 152.745 0.825 153.682 1.56 Q 154.62 2.295 154.74 3.51 L 153.24 3.51 A 1.49 1.49 0 0 0 152.891 2.729 A 2.122 2.122 0 0 0 152.61 2.453 A 1.919 1.919 0 0 0 151.848 2.077 Q 151.566 2.005 151.236 1.996 A 3.548 3.548 0 0 0 151.14 1.995 A 2.699 2.699 0 0 0 150.526 2.061 A 1.89 1.89 0 0 0 149.745 2.438 A 1.444 1.444 0 0 0 149.221 3.409 A 2.094 2.094 0 0 0 149.205 3.675 Q 149.205 4.245 149.527 4.605 Q 149.85 4.965 150.323 5.153 Q 150.749 5.322 151.488 5.534 A 28.033 28.033 0 0 0 151.65 5.58 A 18.906 18.906 0 0 1 152.314 5.775 Q 152.608 5.868 152.858 5.96 A 7.83 7.83 0 0 1 153.315 6.143 Q 153.945 6.42 154.395 6.998 A 1.991 1.991 0 0 1 154.736 7.691 Q 154.816 7.975 154.837 8.313 A 4.015 4.015 0 0 1 154.845 8.565 Q 154.845 9.33 154.44 10.005 Q 154.035 10.68 153.24 11.1 A 3.555 3.555 0 0 1 152.165 11.456 A 4.79 4.79 0 0 1 151.365 11.52 A 4.992 4.992 0 0 1 150.327 11.416 A 4.012 4.012 0 0 1 149.513 11.153 A 3.386 3.386 0 0 1 148.743 10.682 A 2.856 2.856 0 0 1 148.23 10.133 Q 147.765 9.48 147.75 8.625 Z M 247.38 8.625 L 248.835 8.625 Q 248.91 9.36 249.442 9.863 A 1.7 1.7 0 0 0 250.097 10.239 Q 250.361 10.325 250.681 10.352 A 3.693 3.693 0 0 0 250.995 10.365 Q 251.77 10.365 252.284 10.057 A 1.753 1.753 0 0 0 252.533 9.878 A 1.567 1.567 0 0 0 253.092 8.743 A 1.996 1.996 0 0 0 253.095 8.625 A 1.778 1.778 0 0 0 253.045 8.193 A 1.277 1.277 0 0 0 252.765 7.65 A 2.093 2.093 0 0 0 252.001 7.105 A 2.446 2.446 0 0 0 251.94 7.08 A 7.588 7.588 0 0 0 251.597 6.955 Q 251.21 6.824 250.681 6.681 A 24.39 24.39 0 0 0 250.605 6.66 A 18.343 18.343 0 0 1 249.998 6.491 Q 249.375 6.306 248.948 6.12 A 2.637 2.637 0 0 1 247.967 5.378 A 3.128 3.128 0 0 1 247.883 5.273 Q 247.494 4.765 247.447 3.951 A 3.991 3.991 0 0 1 247.44 3.72 Q 247.44 2.865 247.875 2.205 A 2.763 2.763 0 0 1 248.86 1.305 A 3.398 3.398 0 0 1 249.098 1.185 Q 249.885 0.825 250.905 0.825 Q 252.375 0.825 253.312 1.56 Q 254.25 2.295 254.37 3.51 L 252.87 3.51 A 1.49 1.49 0 0 0 252.521 2.729 A 2.122 2.122 0 0 0 252.24 2.453 A 1.919 1.919 0 0 0 251.478 2.077 Q 251.196 2.005 250.866 1.996 A 3.548 3.548 0 0 0 250.77 1.995 A 2.699 2.699 0 0 0 250.156 2.061 A 1.89 1.89 0 0 0 249.375 2.438 A 1.444 1.444 0 0 0 248.851 3.409 A 2.094 2.094 0 0 0 248.835 3.675 Q 248.835 4.245 249.157 4.605 Q 249.48 4.965 249.953 5.153 Q 250.379 5.322 251.118 5.534 A 28.033 28.033 0 0 0 251.28 5.58 A 18.906 18.906 0 0 1 251.944 5.775 Q 252.238 5.868 252.488 5.96 A 7.83 7.83 0 0 1 252.945 6.143 Q 253.575 6.42 254.025 6.998 A 1.991 1.991 0 0 1 254.366 7.691 Q 254.446 7.975 254.467 8.313 A 4.015 4.015 0 0 1 254.475 8.565 Q 254.475 9.33 254.07 10.005 Q 253.665 10.68 252.87 11.1 A 3.555 3.555 0 0 1 251.795 11.456 A 4.79 4.79 0 0 1 250.995 11.52 A 4.992 4.992 0 0 1 249.957 11.416 A 4.012 4.012 0 0 1 249.143 11.153 A 3.386 3.386 0 0 1 248.373 10.682 A 2.856 2.856 0 0 1 247.86 10.133 Q 247.395 9.48 247.38 8.625 Z M 48.525 6.57 L 48.525 11.415 L 47.175 11.415 L 47.175 6.765 A 3.939 3.939 0 0 0 47.112 6.036 Q 46.978 5.326 46.56 4.883 A 2.031 2.031 0 0 0 45.418 4.277 A 2.957 2.957 0 0 0 44.88 4.23 A 2.795 2.795 0 0 0 44.132 4.325 A 2.066 2.066 0 0 0 43.162 4.905 A 2.162 2.162 0 0 0 42.679 5.749 Q 42.525 6.235 42.525 6.87 L 42.525 11.415 L 41.16 11.415 L 41.16 0.315 L 42.525 0.315 L 42.525 4.365 A 2.679 2.679 0 0 1 43.598 3.412 A 3.18 3.18 0 0 1 43.642 3.39 A 3.462 3.462 0 0 1 44.808 3.067 A 4.235 4.235 0 0 1 45.24 3.045 A 3.749 3.749 0 0 1 46.307 3.193 A 3.305 3.305 0 0 1 46.92 3.443 A 2.805 2.805 0 0 1 48.057 4.561 A 3.398 3.398 0 0 1 48.098 4.635 A 3.431 3.431 0 0 1 48.431 5.577 Q 48.513 5.978 48.524 6.438 A 5.921 5.921 0 0 1 48.525 6.57 Z M 213.3 6.57 L 213.3 11.415 L 211.95 11.415 L 211.95 6.765 A 3.939 3.939 0 0 0 211.887 6.036 Q 211.753 5.326 211.335 4.883 A 2.031 2.031 0 0 0 210.193 4.277 A 2.957 2.957 0 0 0 209.655 4.23 A 2.795 2.795 0 0 0 208.907 4.325 A 2.066 2.066 0 0 0 207.937 4.905 A 2.162 2.162 0 0 0 207.454 5.749 Q 207.3 6.235 207.3 6.87 L 207.3 11.415 L 205.935 11.415 L 205.935 0.315 L 207.3 0.315 L 207.3 4.365 A 2.679 2.679 0 0 1 208.373 3.412 A 3.18 3.18 0 0 1 208.417 3.39 A 3.462 3.462 0 0 1 209.583 3.067 A 4.235 4.235 0 0 1 210.015 3.045 A 3.749 3.749 0 0 1 211.082 3.193 A 3.305 3.305 0 0 1 211.695 3.443 A 2.805 2.805 0 0 1 212.832 4.561 A 3.398 3.398 0 0 1 212.873 4.635 A 3.431 3.431 0 0 1 213.206 5.577 Q 213.288 5.978 213.299 6.438 A 5.921 5.921 0 0 1 213.3 6.57 Z M 125.835 3.195 L 127.245 3.195 L 122.295 15.285 L 120.885 15.285 L 122.505 11.325 L 119.19 3.195 L 120.705 3.195 L 123.285 9.855 L 125.835 3.195 Z M 29.82 6.57 L 29.82 11.415 L 28.47 11.415 L 28.47 6.765 A 3.939 3.939 0 0 0 28.407 6.036 Q 28.273 5.326 27.855 4.883 A 2.031 2.031 0 0 0 26.713 4.277 A 2.957 2.957 0 0 0 26.175 4.23 A 2.795 2.795 0 0 0 25.427 4.325 A 2.066 2.066 0 0 0 24.457 4.905 A 2.162 2.162 0 0 0 23.974 5.749 Q 23.82 6.235 23.82 6.87 L 23.82 11.415 L 22.455 11.415 L 22.455 3.195 L 23.82 3.195 L 23.82 4.365 Q 24.225 3.735 24.922 3.39 A 3.363 3.363 0 0 1 26.252 3.051 A 3.966 3.966 0 0 1 26.46 3.045 A 4.046 4.046 0 0 1 27.545 3.184 A 3.069 3.069 0 0 1 28.89 3.953 Q 29.746 4.788 29.814 6.302 A 5.946 5.946 0 0 1 29.82 6.57 Z M 69.09 11.415 L 67.455 11.415 L 64.965 7.14 L 63.315 7.14 L 63.315 11.415 L 61.95 11.415 L 61.95 0.96 L 65.325 0.96 Q 66.51 0.96 67.328 1.365 A 3.192 3.192 0 0 1 68.023 1.824 A 2.586 2.586 0 0 1 68.55 2.46 A 2.957 2.957 0 0 1 68.941 3.71 A 3.645 3.645 0 0 1 68.955 4.035 Q 68.955 5.115 68.333 5.94 A 2.704 2.704 0 0 1 67.287 6.766 A 3.942 3.942 0 0 1 66.465 7.035 L 69.09 11.415 Z M 129.975 9.9 L 129.975 15.315 L 128.61 15.315 L 128.61 3.195 L 129.975 3.195 L 129.975 4.71 A 3.064 3.064 0 0 1 130.76 3.819 A 3.914 3.914 0 0 1 131.182 3.533 A 3.404 3.404 0 0 1 132.472 3.097 A 4.35 4.35 0 0 1 133.05 3.06 A 3.931 3.931 0 0 1 134.564 3.349 A 3.764 3.764 0 0 1 135.037 3.585 Q 135.93 4.11 136.44 5.063 A 4.26 4.26 0 0 1 136.89 6.445 A 5.524 5.524 0 0 1 136.95 7.275 A 5.206 5.206 0 0 1 136.806 8.522 A 4.315 4.315 0 0 1 136.44 9.495 A 3.845 3.845 0 0 1 135.46 10.713 A 3.709 3.709 0 0 1 135.037 11.01 Q 134.145 11.55 133.05 11.55 A 3.961 3.961 0 0 1 132.019 11.421 A 3.296 3.296 0 0 1 131.197 11.078 A 3.743 3.743 0 0 1 130.457 10.515 A 3.086 3.086 0 0 1 129.975 9.9 Z M 176.61 9.9 L 176.61 15.315 L 175.245 15.315 L 175.245 3.195 L 176.61 3.195 L 176.61 4.71 A 3.064 3.064 0 0 1 177.395 3.819 A 3.914 3.914 0 0 1 177.817 3.533 A 3.404 3.404 0 0 1 179.107 3.097 A 4.35 4.35 0 0 1 179.685 3.06 A 3.931 3.931 0 0 1 181.199 3.349 A 3.764 3.764 0 0 1 181.672 3.585 Q 182.565 4.11 183.075 5.063 A 4.26 4.26 0 0 1 183.525 6.445 A 5.524 5.524 0 0 1 183.585 7.275 A 5.206 5.206 0 0 1 183.441 8.522 A 4.315 4.315 0 0 1 183.075 9.495 A 3.845 3.845 0 0 1 182.095 10.713 A 3.709 3.709 0 0 1 181.672 11.01 Q 180.78 11.55 179.685 11.55 A 3.961 3.961 0 0 1 178.654 11.421 A 3.296 3.296 0 0 1 177.832 11.078 A 3.743 3.743 0 0 1 177.092 10.515 A 3.086 3.086 0 0 1 176.61 9.9 Z M 312.765 9.9 L 312.765 15.315 L 311.4 15.315 L 311.4 3.195 L 312.765 3.195 L 312.765 4.71 A 3.064 3.064 0 0 1 313.55 3.819 A 3.914 3.914 0 0 1 313.972 3.533 A 3.404 3.404 0 0 1 315.262 3.097 A 4.35 4.35 0 0 1 315.84 3.06 A 3.931 3.931 0 0 1 317.354 3.349 A 3.764 3.764 0 0 1 317.827 3.585 Q 318.72 4.11 319.23 5.063 A 4.26 4.26 0 0 1 319.68 6.445 A 5.524 5.524 0 0 1 319.74 7.275 A 5.206 5.206 0 0 1 319.596 8.522 A 4.315 4.315 0 0 1 319.23 9.495 A 3.845 3.845 0 0 1 318.25 10.713 A 3.709 3.709 0 0 1 317.827 11.01 Q 316.935 11.55 315.84 11.55 A 3.961 3.961 0 0 1 314.809 11.421 A 3.296 3.296 0 0 1 313.987 11.078 A 3.743 3.743 0 0 1 313.247 10.515 A 3.086 3.086 0 0 1 312.765 9.9 Z M 39.345 5.835 L 37.875 5.835 Q 37.665 5.085 37.058 4.65 A 2.277 2.277 0 0 0 36.159 4.271 A 3.154 3.154 0 0 0 35.55 4.215 A 2.765 2.765 0 0 0 34.647 4.357 A 2.324 2.324 0 0 0 33.66 5.018 Q 33.038 5.711 32.953 6.902 A 5.473 5.473 0 0 0 32.94 7.29 Q 32.94 8.369 33.32 9.092 A 2.469 2.469 0 0 0 33.66 9.585 Q 34.38 10.395 35.55 10.395 A 3.181 3.181 0 0 0 36.231 10.326 A 2.251 2.251 0 0 0 37.05 9.975 Q 37.65 9.555 37.875 8.775 L 39.345 8.775 Q 39.015 10.035 38.025 10.793 Q 37.035 11.55 35.55 11.55 A 4.442 4.442 0 0 1 34.349 11.393 A 3.771 3.771 0 0 1 33.472 11.025 Q 32.565 10.5 32.055 9.54 A 4.291 4.291 0 0 1 31.617 8.211 A 5.689 5.689 0 0 1 31.545 7.29 A 5.397 5.397 0 0 1 31.657 6.166 A 4.155 4.155 0 0 1 32.055 5.063 Q 32.565 4.11 33.473 3.585 A 3.916 3.916 0 0 1 35.051 3.085 A 4.861 4.861 0 0 1 35.55 3.06 A 5.134 5.134 0 0 1 36.652 3.172 A 3.578 3.578 0 0 1 38.048 3.795 A 3.392 3.392 0 0 1 39.256 5.518 A 4.365 4.365 0 0 1 39.345 5.835 Z M 97.8 5.835 L 96.33 5.835 Q 96.12 5.085 95.513 4.65 A 2.277 2.277 0 0 0 94.614 4.271 A 3.154 3.154 0 0 0 94.005 4.215 A 2.765 2.765 0 0 0 93.102 4.357 A 2.324 2.324 0 0 0 92.115 5.018 Q 91.493 5.711 91.408 6.902 A 5.473 5.473 0 0 0 91.395 7.29 Q 91.395 8.369 91.775 9.092 A 2.469 2.469 0 0 0 92.115 9.585 Q 92.835 10.395 94.005 10.395 A 3.181 3.181 0 0 0 94.686 10.326 A 2.251 2.251 0 0 0 95.505 9.975 Q 96.105 9.555 96.33 8.775 L 97.8 8.775 Q 97.47 10.035 96.48 10.793 Q 95.49 11.55 94.005 11.55 A 4.442 4.442 0 0 1 92.804 11.393 A 3.771 3.771 0 0 1 91.927 11.025 Q 91.02 10.5 90.51 9.54 A 4.291 4.291 0 0 1 90.072 8.211 A 5.689 5.689 0 0 1 90 7.29 A 5.397 5.397 0 0 1 90.112 6.166 A 4.155 4.155 0 0 1 90.51 5.063 Q 91.02 4.11 91.928 3.585 A 3.916 3.916 0 0 1 93.506 3.085 A 4.861 4.861 0 0 1 94.005 3.06 A 5.134 5.134 0 0 1 95.107 3.172 A 3.578 3.578 0 0 1 96.503 3.795 A 3.392 3.392 0 0 1 97.711 5.518 A 4.365 4.365 0 0 1 97.8 5.835 Z M 164.145 5.835 L 162.675 5.835 Q 162.465 5.085 161.858 4.65 A 2.277 2.277 0 0 0 160.959 4.271 A 3.154 3.154 0 0 0 160.35 4.215 A 2.765 2.765 0 0 0 159.447 4.357 A 2.324 2.324 0 0 0 158.46 5.018 Q 157.838 5.711 157.753 6.902 A 5.473 5.473 0 0 0 157.74 7.29 Q 157.74 8.369 158.12 9.092 A 2.469 2.469 0 0 0 158.46 9.585 Q 159.18 10.395 160.35 10.395 A 3.181 3.181 0 0 0 161.031 10.326 A 2.251 2.251 0 0 0 161.85 9.975 Q 162.45 9.555 162.675 8.775 L 164.145 8.775 Q 163.815 10.035 162.825 10.793 Q 161.835 11.55 160.35 11.55 A 4.442 4.442 0 0 1 159.149 11.393 A 3.771 3.771 0 0 1 158.272 11.025 Q 157.365 10.5 156.855 9.54 A 4.291 4.291 0 0 1 156.417 8.211 A 5.689 5.689 0 0 1 156.345 7.29 A 5.397 5.397 0 0 1 156.457 6.166 A 4.155 4.155 0 0 1 156.855 5.063 Q 157.365 4.11 158.272 3.585 A 3.916 3.916 0 0 1 159.851 3.085 A 4.861 4.861 0 0 1 160.35 3.06 A 5.134 5.134 0 0 1 161.452 3.172 A 3.578 3.578 0 0 1 162.848 3.795 A 3.392 3.392 0 0 1 164.056 5.518 A 4.365 4.365 0 0 1 164.145 5.835 Z M 20.61 7.815 L 14.04 7.815 A 3.361 3.361 0 0 0 14.192 8.651 A 2.401 2.401 0 0 0 14.873 9.713 A 2.635 2.635 0 0 0 16.643 10.394 A 3.371 3.371 0 0 0 16.71 10.395 A 3.137 3.137 0 0 0 17.381 10.327 A 2.229 2.229 0 0 0 18.187 9.983 Q 18.78 9.57 19.02 8.88 L 20.49 8.88 Q 20.16 10.065 19.17 10.808 A 3.647 3.647 0 0 1 17.623 11.47 A 4.999 4.999 0 0 1 16.71 11.55 A 4.461 4.461 0 0 1 15.44 11.375 A 3.881 3.881 0 0 1 14.617 11.025 Q 13.695 10.5 13.17 9.533 A 4.31 4.31 0 0 1 12.697 8.062 A 5.557 5.557 0 0 1 12.645 7.29 A 5.395 5.395 0 0 1 12.765 6.129 A 4.201 4.201 0 0 1 13.155 5.055 Q 13.665 4.095 14.588 3.578 A 4.044 4.044 0 0 1 16.092 3.097 A 5.098 5.098 0 0 1 16.71 3.06 A 4.563 4.563 0 0 1 17.869 3.202 A 3.781 3.781 0 0 1 18.78 3.57 Q 19.68 4.08 20.167 4.973 A 4.008 4.008 0 0 1 20.637 6.568 A 4.905 4.905 0 0 1 20.655 6.99 A 7.531 7.531 0 0 1 20.637 7.495 A 8.943 8.943 0 0 1 20.61 7.815 Z M 78.525 7.815 L 71.955 7.815 A 3.361 3.361 0 0 0 72.107 8.651 A 2.401 2.401 0 0 0 72.788 9.713 A 2.635 2.635 0 0 0 74.558 10.394 A 3.371 3.371 0 0 0 74.625 10.395 A 3.137 3.137 0 0 0 75.296 10.327 A 2.229 2.229 0 0 0 76.102 9.983 Q 76.695 9.57 76.935 8.88 L 78.405 8.88 Q 78.075 10.065 77.085 10.808 A 3.647 3.647 0 0 1 75.538 11.47 A 4.999 4.999 0 0 1 74.625 11.55 A 4.461 4.461 0 0 1 73.355 11.375 A 3.881 3.881 0 0 1 72.532 11.025 Q 71.61 10.5 71.085 9.533 A 4.31 4.31 0 0 1 70.612 8.062 A 5.557 5.557 0 0 1 70.56 7.29 A 5.395 5.395 0 0 1 70.68 6.129 A 4.201 4.201 0 0 1 71.07 5.055 Q 71.58 4.095 72.503 3.578 A 4.044 4.044 0 0 1 74.007 3.097 A 5.098 5.098 0 0 1 74.625 3.06 A 4.563 4.563 0 0 1 75.784 3.202 A 3.781 3.781 0 0 1 76.695 3.57 Q 77.595 4.08 78.083 4.973 A 4.008 4.008 0 0 1 78.552 6.568 A 4.905 4.905 0 0 1 78.57 6.99 A 7.531 7.531 0 0 1 78.552 7.495 A 8.943 8.943 0 0 1 78.525 7.815 Z M 146.205 7.815 L 139.635 7.815 A 3.361 3.361 0 0 0 139.787 8.651 A 2.401 2.401 0 0 0 140.468 9.713 A 2.635 2.635 0 0 0 142.238 10.394 A 3.371 3.371 0 0 0 142.305 10.395 A 3.137 3.137 0 0 0 142.976 10.327 A 2.229 2.229 0 0 0 143.782 9.983 Q 144.375 9.57 144.615 8.88 L 146.085 8.88 Q 145.755 10.065 144.765 10.808 A 3.647 3.647 0 0 1 143.218 11.47 A 4.999 4.999 0 0 1 142.305 11.55 A 4.461 4.461 0 0 1 141.035 11.375 A 3.881 3.881 0 0 1 140.212 11.025 Q 139.29 10.5 138.765 9.533 A 4.31 4.31 0 0 1 138.292 8.062 A 5.557 5.557 0 0 1 138.24 7.29 A 5.395 5.395 0 0 1 138.36 6.129 A 4.201 4.201 0 0 1 138.75 5.055 Q 139.26 4.095 140.182 3.578 A 4.044 4.044 0 0 1 141.687 3.097 A 5.098 5.098 0 0 1 142.305 3.06 A 4.563 4.563 0 0 1 143.464 3.202 A 3.781 3.781 0 0 1 144.375 3.57 Q 145.275 4.08 145.762 4.973 A 4.008 4.008 0 0 1 146.232 6.568 A 4.905 4.905 0 0 1 146.25 6.99 A 7.531 7.531 0 0 1 146.232 7.495 A 8.943 8.943 0 0 1 146.205 7.815 Z M 228.585 7.815 L 222.015 7.815 A 3.361 3.361 0 0 0 222.167 8.651 A 2.401 2.401 0 0 0 222.848 9.713 A 2.635 2.635 0 0 0 224.618 10.394 A 3.371 3.371 0 0 0 224.685 10.395 A 3.137 3.137 0 0 0 225.356 10.327 A 2.229 2.229 0 0 0 226.162 9.983 Q 226.755 9.57 226.995 8.88 L 228.465 8.88 Q 228.135 10.065 227.145 10.808 A 3.647 3.647 0 0 1 225.598 11.47 A 4.999 4.999 0 0 1 224.685 11.55 A 4.461 4.461 0 0 1 223.415 11.375 A 3.881 3.881 0 0 1 222.592 11.025 Q 221.67 10.5 221.145 9.533 A 4.31 4.31 0 0 1 220.672 8.062 A 5.557 5.557 0 0 1 220.62 7.29 A 5.395 5.395 0 0 1 220.74 6.129 A 4.201 4.201 0 0 1 221.13 5.055 Q 221.64 4.095 222.562 3.578 A 4.044 4.044 0 0 1 224.067 3.097 A 5.098 5.098 0 0 1 224.685 3.06 A 4.563 4.563 0 0 1 225.844 3.202 A 3.781 3.781 0 0 1 226.755 3.57 Q 227.655 4.08 228.142 4.973 A 4.008 4.008 0 0 1 228.612 6.568 A 4.905 4.905 0 0 1 228.63 6.99 A 7.531 7.531 0 0 1 228.612 7.495 A 8.943 8.943 0 0 1 228.585 7.815 Z M 237.885 7.815 L 231.315 7.815 A 3.361 3.361 0 0 0 231.467 8.651 A 2.401 2.401 0 0 0 232.148 9.713 A 2.635 2.635 0 0 0 233.918 10.394 A 3.371 3.371 0 0 0 233.985 10.395 A 3.137 3.137 0 0 0 234.656 10.327 A 2.229 2.229 0 0 0 235.462 9.983 Q 236.055 9.57 236.295 8.88 L 237.765 8.88 Q 237.435 10.065 236.445 10.808 A 3.647 3.647 0 0 1 234.898 11.47 A 4.999 4.999 0 0 1 233.985 11.55 A 4.461 4.461 0 0 1 232.715 11.375 A 3.881 3.881 0 0 1 231.892 11.025 Q 230.97 10.5 230.445 9.533 A 4.31 4.31 0 0 1 229.972 8.062 A 5.557 5.557 0 0 1 229.92 7.29 A 5.395 5.395 0 0 1 230.04 6.129 A 4.201 4.201 0 0 1 230.43 5.055 Q 230.94 4.095 231.862 3.578 A 4.044 4.044 0 0 1 233.367 3.097 A 5.098 5.098 0 0 1 233.985 3.06 A 4.563 4.563 0 0 1 235.144 3.202 A 3.781 3.781 0 0 1 236.055 3.57 Q 236.955 4.08 237.442 4.973 A 4.008 4.008 0 0 1 237.912 6.568 A 4.905 4.905 0 0 1 237.93 6.99 A 7.531 7.531 0 0 1 237.912 7.495 A 8.943 8.943 0 0 1 237.885 7.815 Z M 278.55 7.815 L 271.98 7.815 A 3.361 3.361 0 0 0 272.132 8.651 A 2.401 2.401 0 0 0 272.813 9.713 A 2.635 2.635 0 0 0 274.583 10.394 A 3.371 3.371 0 0 0 274.65 10.395 A 3.137 3.137 0 0 0 275.321 10.327 A 2.229 2.229 0 0 0 276.127 9.983 Q 276.72 9.57 276.96 8.88 L 278.43 8.88 Q 278.1 10.065 277.11 10.808 A 3.647 3.647 0 0 1 275.563 11.47 A 4.999 4.999 0 0 1 274.65 11.55 A 4.461 4.461 0 0 1 273.38 11.375 A 3.881 3.881 0 0 1 272.557 11.025 Q 271.635 10.5 271.11 9.533 A 4.31 4.31 0 0 1 270.637 8.062 A 5.557 5.557 0 0 1 270.585 7.29 A 5.395 5.395 0 0 1 270.705 6.129 A 4.201 4.201 0 0 1 271.095 5.055 Q 271.605 4.095 272.528 3.578 A 4.044 4.044 0 0 1 274.032 3.097 A 5.098 5.098 0 0 1 274.65 3.06 A 4.563 4.563 0 0 1 275.809 3.202 A 3.781 3.781 0 0 1 276.72 3.57 Q 277.62 4.08 278.108 4.973 A 4.008 4.008 0 0 1 278.577 6.568 A 4.905 4.905 0 0 1 278.595 6.99 A 7.531 7.531 0 0 1 278.577 7.495 A 8.943 8.943 0 0 1 278.55 7.815 Z M 296.265 7.815 L 289.695 7.815 A 3.361 3.361 0 0 0 289.847 8.651 A 2.401 2.401 0 0 0 290.528 9.713 A 2.635 2.635 0 0 0 292.298 10.394 A 3.371 3.371 0 0 0 292.365 10.395 A 3.137 3.137 0 0 0 293.036 10.327 A 2.229 2.229 0 0 0 293.842 9.983 Q 294.435 9.57 294.675 8.88 L 296.145 8.88 Q 295.815 10.065 294.825 10.808 A 3.647 3.647 0 0 1 293.278 11.47 A 4.999 4.999 0 0 1 292.365 11.55 A 4.461 4.461 0 0 1 291.095 11.375 A 3.881 3.881 0 0 1 290.272 11.025 Q 289.35 10.5 288.825 9.533 A 4.31 4.31 0 0 1 288.352 8.062 A 5.557 5.557 0 0 1 288.3 7.29 A 5.395 5.395 0 0 1 288.42 6.129 A 4.201 4.201 0 0 1 288.81 5.055 Q 289.32 4.095 290.243 3.578 A 4.044 4.044 0 0 1 291.747 3.097 A 5.098 5.098 0 0 1 292.365 3.06 A 4.563 4.563 0 0 1 293.524 3.202 A 3.781 3.781 0 0 1 294.435 3.57 Q 295.335 4.08 295.823 4.973 A 4.008 4.008 0 0 1 296.292 6.568 A 4.905 4.905 0 0 1 296.31 6.99 A 7.531 7.531 0 0 1 296.292 7.495 A 8.943 8.943 0 0 1 296.265 7.815 Z M 328.995 7.815 L 322.425 7.815 A 3.361 3.361 0 0 0 322.577 8.651 A 2.401 2.401 0 0 0 323.258 9.713 A 2.635 2.635 0 0 0 325.028 10.394 A 3.371 3.371 0 0 0 325.095 10.395 A 3.137 3.137 0 0 0 325.766 10.327 A 2.229 2.229 0 0 0 326.572 9.983 Q 327.165 9.57 327.405 8.88 L 328.875 8.88 Q 328.545 10.065 327.555 10.808 A 3.647 3.647 0 0 1 326.008 11.47 A 4.999 4.999 0 0 1 325.095 11.55 A 4.461 4.461 0 0 1 323.825 11.375 A 3.881 3.881 0 0 1 323.002 11.025 Q 322.08 10.5 321.555 9.533 A 4.31 4.31 0 0 1 321.082 8.062 A 5.557 5.557 0 0 1 321.03 7.29 A 5.395 5.395 0 0 1 321.15 6.129 A 4.201 4.201 0 0 1 321.54 5.055 Q 322.05 4.095 322.973 3.578 A 4.044 4.044 0 0 1 324.477 3.097 A 5.098 5.098 0 0 1 325.095 3.06 A 4.563 4.563 0 0 1 326.254 3.202 A 3.781 3.781 0 0 1 327.165 3.57 Q 328.065 4.08 328.553 4.973 A 4.008 4.008 0 0 1 329.022 6.568 A 4.905 4.905 0 0 1 329.04 6.99 A 7.531 7.531 0 0 1 329.022 7.495 A 8.943 8.943 0 0 1 328.995 7.815 Z M 0 0.96 L 5.91 0.96 L 5.91 2.07 L 1.365 2.07 L 1.365 5.595 L 5.055 5.595 L 5.055 6.705 L 1.365 6.705 L 1.365 11.415 L 0 11.415 L 0 0.96 Z M 280.89 3.195 L 283.455 10.155 L 286.005 3.195 L 287.46 3.195 L 284.235 11.415 L 282.645 11.415 L 279.42 3.195 L 280.89 3.195 Z M 111.405 0.96 L 118.485 0.96 L 118.485 2.07 L 115.635 2.07 L 115.635 11.415 L 114.27 11.415 L 114.27 2.07 L 111.405 2.07 L 111.405 0.96 Z M 197.175 0.96 L 204.255 0.96 L 204.255 2.07 L 201.405 2.07 L 201.405 11.415 L 200.04 11.415 L 200.04 2.07 L 197.175 2.07 L 197.175 0.96 Z M 263.745 11.415 L 260.49 11.415 L 260.49 0.96 L 263.745 0.96 A 7.752 7.752 0 0 1 265.154 1.082 A 5.68 5.68 0 0 1 266.707 1.598 Q 267.96 2.235 268.628 3.42 A 5.117 5.117 0 0 1 269.212 5.134 A 6.768 6.768 0 0 1 269.295 6.21 A 6.488 6.488 0 0 1 269.151 7.61 A 4.947 4.947 0 0 1 268.628 8.993 Q 267.96 10.17 266.708 10.793 Q 265.455 11.415 263.745 11.415 Z M 86.82 4.695 L 86.82 3.195 L 88.2 3.195 L 88.2 11.415 L 86.82 11.415 L 86.82 9.885 A 3.065 3.065 0 0 1 85.989 10.826 A 3.847 3.847 0 0 1 85.613 11.078 A 3.404 3.404 0 0 1 84.323 11.513 A 4.35 4.35 0 0 1 83.745 11.55 A 3.81 3.81 0 0 1 82.252 11.26 A 3.658 3.658 0 0 1 81.765 11.01 Q 80.88 10.47 80.37 9.495 A 4.481 4.481 0 0 1 79.896 7.917 A 5.598 5.598 0 0 1 79.86 7.275 A 5.27 5.27 0 0 1 79.984 6.109 A 4.145 4.145 0 0 1 80.37 5.063 Q 80.88 4.11 81.773 3.585 A 3.832 3.832 0 0 1 83.692 3.061 A 4.528 4.528 0 0 1 83.76 3.06 A 4.225 4.225 0 0 1 84.71 3.162 A 3.276 3.276 0 0 1 85.635 3.525 Q 86.43 3.99 86.82 4.695 Z M 103.425 4.32 L 101.28 4.32 L 101.28 9.165 A 2.224 2.224 0 0 0 101.298 9.459 Q 101.348 9.831 101.535 10.013 A 0.715 0.715 0 0 0 101.767 10.159 Q 102.016 10.26 102.42 10.26 L 103.425 10.26 L 103.425 11.415 L 102.195 11.415 A 3.961 3.961 0 0 1 101.568 11.369 Q 101.232 11.315 100.965 11.198 A 1.711 1.711 0 0 1 100.485 10.89 A 1.554 1.554 0 0 1 100.095 10.302 Q 99.915 9.84 99.915 9.165 L 99.915 4.32 L 98.85 4.32 L 98.85 3.195 L 99.915 3.195 L 99.915 1.125 L 101.28 1.125 L 101.28 3.195 L 103.425 3.195 L 103.425 4.32 Z M 189.195 4.32 L 187.05 4.32 L 187.05 9.165 A 2.224 2.224 0 0 0 187.068 9.459 Q 187.118 9.831 187.305 10.013 A 0.715 0.715 0 0 0 187.537 10.159 Q 187.786 10.26 188.19 10.26 L 189.195 10.26 L 189.195 11.415 L 187.965 11.415 A 3.961 3.961 0 0 1 187.338 11.369 Q 187.002 11.315 186.735 11.198 A 1.711 1.711 0 0 1 186.255 10.89 A 1.554 1.554 0 0 1 185.865 10.302 Q 185.685 9.84 185.685 9.165 L 185.685 4.32 L 184.62 4.32 L 184.62 3.195 L 185.685 3.195 L 185.685 1.125 L 187.05 1.125 L 187.05 3.195 L 189.195 3.195 L 189.195 4.32 Z M 243.615 0.96 L 244.995 0.96 L 244.995 8.685 A 3.387 3.387 0 0 1 244.878 9.597 A 2.517 2.517 0 0 1 244.2 10.748 A 2.681 2.681 0 0 1 242.757 11.466 A 3.801 3.801 0 0 1 242.1 11.52 A 3.595 3.595 0 0 1 241.184 11.409 A 2.616 2.616 0 0 1 239.985 10.733 A 2.61 2.61 0 0 1 239.272 9.395 A 3.862 3.862 0 0 1 239.19 8.58 L 240.555 8.58 Q 240.569 9.314 240.922 9.785 A 1.62 1.62 0 0 0 240.952 9.825 A 1.226 1.226 0 0 0 241.649 10.256 A 1.936 1.936 0 0 0 242.1 10.305 A 2.028 2.028 0 0 0 242.54 10.26 Q 242.982 10.162 243.24 9.848 A 1.625 1.625 0 0 0 243.578 9.102 A 2.267 2.267 0 0 0 243.615 8.685 L 243.615 0.96 Z M 305.385 11.55 Q 304.23 11.55 303.293 11.025 Q 302.355 10.5 301.823 9.533 A 4.269 4.269 0 0 1 301.342 8.057 A 5.484 5.484 0 0 1 301.29 7.29 A 4.928 4.928 0 0 1 301.44 6.051 A 4.068 4.068 0 0 1 301.837 5.063 Q 302.385 4.095 303.33 3.578 Q 304.275 3.06 305.445 3.06 A 4.561 4.561 0 0 1 306.82 3.262 A 4.091 4.091 0 0 1 307.56 3.578 Q 308.505 4.095 309.053 5.055 A 4.137 4.137 0 0 1 309.547 6.524 A 5.321 5.321 0 0 1 309.6 7.29 A 4.911 4.911 0 0 1 309.459 8.488 A 4.005 4.005 0 0 1 309.038 9.533 Q 308.475 10.5 307.515 11.025 A 4.326 4.326 0 0 1 305.548 11.548 A 5.119 5.119 0 0 1 305.385 11.55 Z M 11.58 3.045 L 11.58 4.455 L 11.22 4.455 A 3.028 3.028 0 0 0 10.284 4.587 Q 8.926 5.029 8.925 6.943 A 5.535 5.535 0 0 0 8.925 6.945 L 8.925 11.415 L 7.56 11.415 L 7.56 3.195 L 8.925 3.195 L 8.925 4.53 Q 9.285 3.825 9.953 3.435 Q 10.602 3.056 11.528 3.045 A 4.668 4.668 0 0 1 11.58 3.045 Z M 169.98 3.045 L 169.98 4.455 L 169.62 4.455 A 3.028 3.028 0 0 0 168.684 4.587 Q 167.326 5.029 167.325 6.943 A 5.535 5.535 0 0 0 167.325 6.945 L 167.325 11.415 L 165.96 11.415 L 165.96 3.195 L 167.325 3.195 L 167.325 4.53 Q 167.685 3.825 168.353 3.435 Q 169.002 3.056 169.928 3.045 A 4.668 4.668 0 0 1 169.98 3.045 Z M 219.555 3.045 L 219.555 4.455 L 219.195 4.455 A 3.028 3.028 0 0 0 218.259 4.587 Q 216.901 5.029 216.9 6.943 A 5.535 5.535 0 0 0 216.9 6.945 L 216.9 11.415 L 215.535 11.415 L 215.535 3.195 L 216.9 3.195 L 216.9 4.53 Q 217.26 3.825 217.927 3.435 Q 218.577 3.056 219.503 3.045 A 4.668 4.668 0 0 1 219.555 3.045 Z M 334.86 3.045 L 334.86 4.455 L 334.5 4.455 A 3.028 3.028 0 0 0 333.564 4.587 Q 332.206 5.029 332.205 6.943 A 5.535 5.535 0 0 0 332.205 6.945 L 332.205 11.415 L 330.84 11.415 L 330.84 3.195 L 332.205 3.195 L 332.205 4.53 Q 332.565 3.825 333.233 3.435 Q 333.882 3.056 334.808 3.045 A 4.668 4.668 0 0 1 334.86 3.045 Z M 263.745 2.07 L 261.855 2.07 L 261.855 10.29 L 263.745 10.29 Q 265.227 10.29 266.195 9.716 A 3.199 3.199 0 0 0 266.835 9.218 Q 267.9 8.145 267.9 6.21 Q 267.9 4.56 267.132 3.522 A 3.4 3.4 0 0 0 266.828 3.165 A 3.459 3.459 0 0 0 265.274 2.265 Q 264.721 2.107 264.057 2.077 A 6.983 6.983 0 0 0 263.745 2.07 Z M 298.11 0.315 L 299.475 0.315 L 299.475 11.415 L 298.11 11.415 L 298.11 0.315 Z M 171.555 3.195 L 172.92 3.195 L 172.92 11.415 L 171.555 11.415 L 171.555 3.195 Z M 135.555 7.275 A 3.892 3.892 0 0 0 135.473 6.456 A 2.978 2.978 0 0 0 135.18 5.655 A 2.715 2.715 0 0 0 134.6 4.914 A 2.497 2.497 0 0 0 134.167 4.605 Q 133.53 4.245 132.765 4.245 Q 132.015 4.245 131.378 4.613 A 2.644 2.644 0 0 0 130.444 5.529 A 3.202 3.202 0 0 0 130.358 5.678 A 3.084 3.084 0 0 0 130.012 6.739 A 3.938 3.938 0 0 0 129.975 7.29 A 3.822 3.822 0 0 0 130.065 8.137 A 2.99 2.99 0 0 0 130.358 8.918 A 2.834 2.834 0 0 0 130.918 9.645 A 2.56 2.56 0 0 0 131.378 9.983 Q 132.015 10.35 132.765 10.35 Q 133.53 10.35 134.168 9.983 A 2.602 2.602 0 0 0 135.107 9.045 A 3.145 3.145 0 0 0 135.18 8.918 Q 135.555 8.22 135.555 7.275 Z M 182.19 7.275 A 3.892 3.892 0 0 0 182.108 6.456 A 2.978 2.978 0 0 0 181.815 5.655 A 2.715 2.715 0 0 0 181.235 4.914 A 2.497 2.497 0 0 0 180.802 4.605 Q 180.165 4.245 179.4 4.245 Q 178.65 4.245 178.013 4.613 A 2.644 2.644 0 0 0 177.079 5.529 A 3.202 3.202 0 0 0 176.993 5.678 A 3.084 3.084 0 0 0 176.647 6.739 A 3.938 3.938 0 0 0 176.61 7.29 A 3.822 3.822 0 0 0 176.7 8.137 A 2.99 2.99 0 0 0 176.993 8.918 A 2.834 2.834 0 0 0 177.553 9.645 A 2.56 2.56 0 0 0 178.013 9.983 Q 178.65 10.35 179.4 10.35 Q 180.165 10.35 180.802 9.983 A 2.602 2.602 0 0 0 181.742 9.045 A 3.145 3.145 0 0 0 181.815 8.918 Q 182.19 8.22 182.19 7.275 Z M 318.345 7.275 A 3.892 3.892 0 0 0 318.263 6.456 A 2.978 2.978 0 0 0 317.97 5.655 A 2.715 2.715 0 0 0 317.39 4.914 A 2.497 2.497 0 0 0 316.957 4.605 Q 316.32 4.245 315.555 4.245 Q 314.805 4.245 314.168 4.613 A 2.644 2.644 0 0 0 313.234 5.529 A 3.202 3.202 0 0 0 313.148 5.678 A 3.084 3.084 0 0 0 312.802 6.739 A 3.938 3.938 0 0 0 312.765 7.29 A 3.822 3.822 0 0 0 312.855 8.137 A 2.99 2.99 0 0 0 313.148 8.918 A 2.834 2.834 0 0 0 313.708 9.645 A 2.56 2.56 0 0 0 314.168 9.983 Q 314.805 10.35 315.555 10.35 Q 316.32 10.35 316.958 9.983 A 2.602 2.602 0 0 0 317.897 9.045 A 3.145 3.145 0 0 0 317.97 8.918 Q 318.345 8.22 318.345 7.275 Z M 86.82 7.29 A 3.892 3.892 0 0 0 86.738 6.471 A 2.978 2.978 0 0 0 86.445 5.67 A 2.747 2.747 0 0 0 85.831 4.896 A 2.56 2.56 0 0 0 85.432 4.613 Q 84.795 4.245 84.03 4.245 A 2.803 2.803 0 0 0 82.897 4.474 A 2.717 2.717 0 0 0 82.635 4.605 Q 82.005 4.965 81.63 5.655 A 3.037 3.037 0 0 0 81.308 6.611 A 4.018 4.018 0 0 0 81.255 7.275 A 4.01 4.01 0 0 0 81.336 8.1 A 3.032 3.032 0 0 0 81.63 8.918 Q 82.005 9.615 82.635 9.983 Q 83.265 10.35 84.03 10.35 Q 84.795 10.35 85.433 9.983 A 2.602 2.602 0 0 0 86.372 9.045 A 3.145 3.145 0 0 0 86.445 8.918 A 3.111 3.111 0 0 0 86.775 7.905 A 4.077 4.077 0 0 0 86.82 7.29 Z M 305.385 10.35 Q 306.12 10.35 306.765 10.005 A 2.573 2.573 0 0 0 307.701 9.142 A 3.147 3.147 0 0 0 307.807 8.97 Q 308.194 8.299 308.205 7.344 A 4.871 4.871 0 0 0 308.205 7.29 A 4.204 4.204 0 0 0 308.141 6.535 Q 308.055 6.069 307.858 5.689 A 2.6 2.6 0 0 0 307.815 5.61 A 2.784 2.784 0 0 0 307.325 4.969 A 2.384 2.384 0 0 0 306.795 4.583 Q 306.165 4.245 305.43 4.245 Q 304.68 4.245 304.058 4.583 Q 303.435 4.92 303.06 5.61 A 2.957 2.957 0 0 0 302.767 6.428 Q 302.695 6.776 302.686 7.175 A 5.09 5.09 0 0 0 302.685 7.29 A 4.563 4.563 0 0 0 302.745 8.051 Q 302.817 8.476 302.975 8.827 A 2.651 2.651 0 0 0 303.052 8.985 A 2.691 2.691 0 0 0 303.497 9.603 A 2.275 2.275 0 0 0 304.035 10.013 Q 304.65 10.35 305.385 10.35 Z M 63.315 2.085 L 63.315 6.045 L 65.325 6.045 A 3.586 3.586 0 0 0 65.95 5.994 Q 66.287 5.934 66.553 5.804 A 1.648 1.648 0 0 0 66.99 5.498 A 1.829 1.829 0 0 0 67.509 4.476 A 2.607 2.607 0 0 0 67.545 4.035 A 2.53 2.53 0 0 0 67.48 3.445 A 1.66 1.66 0 0 0 66.997 2.595 A 1.694 1.694 0 0 0 66.395 2.242 Q 66.137 2.151 65.82 2.113 A 4.141 4.141 0 0 0 65.325 2.085 L 63.315 2.085 Z M 14.055 6.705 L 19.245 6.705 Q 19.245 5.925 18.9 5.363 Q 18.555 4.8 17.963 4.508 A 2.859 2.859 0 0 0 16.872 4.222 A 3.406 3.406 0 0 0 16.65 4.215 A 2.692 2.692 0 0 0 15.644 4.399 A 2.496 2.496 0 0 0 14.888 4.875 A 2.464 2.464 0 0 0 14.174 6.047 A 3.515 3.515 0 0 0 14.055 6.705 Z M 71.97 6.705 L 77.16 6.705 Q 77.16 5.925 76.815 5.363 Q 76.47 4.8 75.878 4.508 A 2.859 2.859 0 0 0 74.787 4.222 A 3.406 3.406 0 0 0 74.565 4.215 A 2.692 2.692 0 0 0 73.559 4.399 A 2.496 2.496 0 0 0 72.803 4.875 A 2.464 2.464 0 0 0 72.089 6.047 A 3.515 3.515 0 0 0 71.97 6.705 Z M 139.65 6.705 L 144.84 6.705 Q 144.84 5.925 144.495 5.363 Q 144.15 4.8 143.557 4.508 A 2.859 2.859 0 0 0 142.467 4.222 A 3.406 3.406 0 0 0 142.245 4.215 A 2.692 2.692 0 0 0 141.239 4.399 A 2.496 2.496 0 0 0 140.483 4.875 A 2.464 2.464 0 0 0 139.769 6.047 A 3.515 3.515 0 0 0 139.65 6.705 Z M 222.03 6.705 L 227.22 6.705 Q 227.22 5.925 226.875 5.363 Q 226.53 4.8 225.937 4.508 A 2.859 2.859 0 0 0 224.847 4.222 A 3.406 3.406 0 0 0 224.625 4.215 A 2.692 2.692 0 0 0 223.619 4.399 A 2.496 2.496 0 0 0 222.863 4.875 A 2.464 2.464 0 0 0 222.149 6.047 A 3.515 3.515 0 0 0 222.03 6.705 Z M 231.33 6.705 L 236.52 6.705 Q 236.52 5.925 236.175 5.363 Q 235.83 4.8 235.237 4.508 A 2.859 2.859 0 0 0 234.147 4.222 A 3.406 3.406 0 0 0 233.925 4.215 A 2.692 2.692 0 0 0 232.919 4.399 A 2.496 2.496 0 0 0 232.163 4.875 A 2.464 2.464 0 0 0 231.449 6.047 A 3.515 3.515 0 0 0 231.33 6.705 Z M 271.995 6.705 L 277.185 6.705 Q 277.185 5.925 276.84 5.363 Q 276.495 4.8 275.903 4.508 A 2.859 2.859 0 0 0 274.812 4.222 A 3.406 3.406 0 0 0 274.59 4.215 A 2.692 2.692 0 0 0 273.584 4.399 A 2.496 2.496 0 0 0 272.828 4.875 A 2.464 2.464 0 0 0 272.114 6.047 A 3.515 3.515 0 0 0 271.995 6.705 Z M 289.71 6.705 L 294.9 6.705 Q 294.9 5.925 294.555 5.363 Q 294.21 4.8 293.618 4.508 A 2.859 2.859 0 0 0 292.527 4.222 A 3.406 3.406 0 0 0 292.305 4.215 A 2.692 2.692 0 0 0 291.299 4.399 A 2.496 2.496 0 0 0 290.543 4.875 A 2.464 2.464 0 0 0 289.829 6.047 A 3.515 3.515 0 0 0 289.71 6.705 Z M 322.44 6.705 L 327.63 6.705 Q 327.63 5.925 327.285 5.363 Q 326.94 4.8 326.348 4.508 A 2.859 2.859 0 0 0 325.257 4.222 A 3.406 3.406 0 0 0 325.035 4.215 A 2.692 2.692 0 0 0 324.029 4.399 A 2.496 2.496 0 0 0 323.273 4.875 A 2.464 2.464 0 0 0 322.559 6.047 A 3.515 3.515 0 0 0 322.44 6.705 Z M 104.985 9.525 L 106.485 9.525 L 104.805 13.56 L 103.89 13.56 L 104.985 9.525 Z M 190.755 9.525 L 192.255 9.525 L 190.575 13.56 L 189.66 13.56 L 190.755 9.525 Z M 54.844 7.145 A 0.929 0.929 0 0 0 55.245 7.23 A 1.028 1.028 0 0 0 55.268 7.23 A 0.854 0.854 0 0 0 55.883 6.96 Q 56.145 6.69 56.145 6.3 Q 56.145 5.91 55.883 5.64 A 1.04 1.04 0 0 0 55.866 5.624 A 0.854 0.854 0 0 0 55.245 5.37 A 1.117 1.117 0 0 0 55.233 5.37 A 0.896 0.896 0 0 0 54.585 5.64 A 0.92 0.92 0 0 0 54.4 5.899 A 0.929 0.929 0 0 0 54.315 6.3 A 1.117 1.117 0 0 0 54.315 6.312 A 0.896 0.896 0 0 0 54.585 6.96 A 0.92 0.92 0 0 0 54.844 7.145 Z M 171.859 1.775 A 0.929 0.929 0 0 0 172.26 1.86 A 1.028 1.028 0 0 0 172.283 1.86 A 0.854 0.854 0 0 0 172.898 1.59 Q 173.16 1.32 173.16 0.93 Q 173.16 0.54 172.897 0.27 A 1.04 1.04 0 0 0 172.881 0.254 A 0.854 0.854 0 0 0 172.26 0 A 1.117 1.117 0 0 0 172.248 0 A 0.896 0.896 0 0 0 171.6 0.27 A 0.92 0.92 0 0 0 171.415 0.529 A 0.929 0.929 0 0 0 171.33 0.93 A 1.117 1.117 0 0 0 171.33 0.942 A 0.896 0.896 0 0 0 171.6 1.59 A 0.92 0.92 0 0 0 171.859 1.775 Z"
        fill="#64748b"
        transform="translate(285, 175)"
      />
    </g>
    <!-- #endregion -->

    <!-- #region additional  -->
    <g class="animate-fade-in-right additional">
      <g class="additional__indicator animate-fade-in">
        <circle cx="373" cy="215" r="5" fill="#4F7118" class="animate-ping" />
        <circle cx="373" cy="215" r="3" fill="#4F7118" />
      </g>
      <g class="additional__text">
        <!-- AVAILABLE -->
        <!-- <path
          d="M386.132 219L389.156 210.06H391.628L394.652 219H392.624L392.024 217.176H388.748L388.148 219H386.132ZM389.264 215.556H391.508L390.14 211.332H390.644L389.264 215.556ZM397.501 219L394.441 210.06H396.481L398.785 217.236H398.377L400.681 210.06H402.721L399.661 219H397.501ZM402.503 219L405.527 210.06H407.999L411.023 219H408.995L408.395 217.176H405.119L404.519 219H402.503ZM405.635 215.556H407.879L406.511 211.332H407.015L405.635 215.556ZM411.952 219V210.06H413.812V219H411.952ZM415.397 219V210.06H417.257V217.38H421.037V219H415.397ZM421.3 219L424.324 210.06H426.796L429.82 219H427.792L427.192 217.176H423.916L423.316 219H421.3ZM424.432 215.556H426.676L425.308 211.332H425.812L424.432 215.556ZM430.749 219V210.06H434.529C435.145 210.06 435.673 210.164 436.113 210.372C436.553 210.58 436.889 210.88 437.121 211.272C437.353 211.656 437.469 212.124 437.469 212.676C437.469 213.068 437.361 213.444 437.145 213.804C436.929 214.156 436.573 214.452 436.077 214.692V213.78C436.549 213.964 436.913 214.184 437.169 214.44C437.425 214.696 437.601 214.976 437.697 215.28C437.793 215.576 437.841 215.888 437.841 216.216C437.841 217.096 437.549 217.78 436.965 218.268C436.381 218.756 435.569 219 434.529 219H430.749ZM432.609 217.38H434.745C435.121 217.38 435.421 217.272 435.645 217.056C435.869 216.84 435.981 216.56 435.981 216.216C435.981 215.864 435.869 215.58 435.645 215.364C435.421 215.148 435.121 215.04 434.745 215.04H432.609V217.38ZM432.609 213.42H434.661C434.949 213.42 435.177 213.34 435.345 213.18C435.521 213.012 435.609 212.792 435.609 212.52C435.609 212.248 435.521 212.032 435.345 211.872C435.177 211.704 434.949 211.62 434.661 211.62H432.609V213.42ZM439.034 219V210.06H440.894V217.38H444.674V219H439.034ZM445.597 219V210.06H451.609V211.68H447.457V213.708H451.369V215.328H447.457V217.38H451.609V219H445.597ZM454.819 219V210.06H460.939V211.68H456.679V213.948H460.339V215.568H456.679V219H454.819ZM466.221 219.144C465.549 219.144 464.925 219.028 464.349 218.796C463.773 218.564 463.269 218.24 462.837 217.824C462.413 217.4 462.081 216.908 461.841 216.348C461.601 215.788 461.481 215.18 461.481 214.524C461.481 213.868 461.597 213.26 461.829 212.7C462.069 212.14 462.401 211.652 462.825 211.236C463.257 210.82 463.761 210.496 464.337 210.264C464.913 210.032 465.541 209.916 466.221 209.916C466.901 209.916 467.529 210.032 468.105 210.264C468.681 210.496 469.181 210.82 469.605 211.236C470.037 211.652 470.369 212.14 470.601 212.7C470.841 213.26 470.961 213.868 470.961 214.524C470.961 215.18 470.841 215.788 470.601 216.348C470.361 216.908 470.025 217.4 469.593 217.824C469.169 218.24 468.669 218.564 468.093 218.796C467.517 219.028 466.893 219.144 466.221 219.144ZM466.221 217.464C466.629 217.464 467.005 217.392 467.349 217.248C467.701 217.104 468.009 216.904 468.273 216.648C468.537 216.384 468.741 216.072 468.885 215.712C469.029 215.352 469.101 214.956 469.101 214.524C469.101 214.092 469.029 213.7 468.885 213.348C468.741 212.988 468.537 212.676 468.273 212.412C468.009 212.148 467.701 211.948 467.349 211.812C467.005 211.668 466.629 211.596 466.221 211.596C465.813 211.596 465.433 211.668 465.081 211.812C464.737 211.948 464.433 212.148 464.169 212.412C463.905 212.676 463.701 212.988 463.557 213.348C463.413 213.7 463.341 214.092 463.341 214.524C463.341 214.956 463.413 215.352 463.557 215.712C463.701 216.072 463.905 216.384 464.169 216.648C464.433 216.904 464.737 217.104 465.081 217.248C465.433 217.392 465.813 217.464 466.221 217.464ZM472.28 219V210.06H475.7C476.316 210.06 476.86 210.168 477.332 210.384C477.812 210.6 478.188 210.92 478.46 211.344C478.732 211.768 478.868 212.292 478.868 212.916C478.868 213.524 478.728 214.044 478.448 214.476C478.168 214.9 477.792 215.22 477.32 215.436L479.36 219H477.272L475.064 215.052L476.264 215.76H474.14V219H472.28ZM474.14 214.14H475.712C475.976 214.14 476.204 214.088 476.396 213.984C476.588 213.88 476.736 213.736 476.84 213.552C476.952 213.368 477.008 213.156 477.008 212.916C477.008 212.668 476.952 212.452 476.84 212.268C476.736 212.084 476.588 211.94 476.396 211.836C476.204 211.732 475.976 211.68 475.712 211.68H474.14V214.14ZM482.44 219V210.06H484.3V213.924H487.78V210.06H489.64V219H487.78V215.544H484.3V219H482.44ZM491.229 219V210.06H493.09V219H491.229ZM494.675 219V210.06H498.095C498.711 210.06 499.255 210.168 499.727 210.384C500.207 210.6 500.583 210.92 500.855 211.344C501.127 211.768 501.263 212.292 501.263 212.916C501.263 213.524 501.123 214.044 500.843 214.476C500.563 214.9 500.187 215.22 499.715 215.436L501.755 219H499.667L497.459 215.052L498.659 215.76H496.535V219H494.675ZM496.535 214.14H498.107C498.371 214.14 498.599 214.088 498.791 213.984C498.983 213.88 499.131 213.736 499.235 213.552C499.347 213.368 499.403 213.156 499.403 212.916C499.403 212.668 499.347 212.452 499.235 212.268C499.131 212.084 498.983 211.94 498.791 211.836C498.599 211.732 498.371 211.68 498.107 211.68H496.535V214.14ZM502.679 219V210.06H508.691V211.68H504.539V213.708H508.451V215.328H504.539V217.38H508.691V219H502.679Z"
          fill="#C4B5FD"
        /> -->
        <!-- WORKING -->
        <path
          d="M 88.738 0.13 L 91.13 0.13 L 88.751 9.256 L 86.06 9.256 L 84.604 3.25 L 83.096 9.256 L 80.405 9.256 L 78.091 0.13 L 80.47 0.13 L 81.783 6.773 L 83.408 0.13 L 85.852 0.13 L 87.412 6.773 L 88.738 0.13 Z M 142.129 3.016 L 139.672 3.016 Q 139.425 2.561 138.964 2.321 Q 138.502 2.08 137.878 2.08 A 2.666 2.666 0 0 0 137.101 2.188 A 2.097 2.097 0 0 0 136.149 2.789 A 2.398 2.398 0 0 0 135.579 3.907 A 3.521 3.521 0 0 0 135.499 4.68 Q 135.499 5.941 136.182 6.65 A 2.25 2.25 0 0 0 137.363 7.289 A 3.333 3.333 0 0 0 138.06 7.358 Q 138.879 7.358 139.445 6.942 A 2.185 2.185 0 0 0 140.083 6.188 A 2.929 2.929 0 0 0 140.27 5.746 L 137.449 5.746 L 137.449 4.108 L 142.285 4.108 L 142.285 6.175 Q 142.038 7.007 141.447 7.722 A 4.326 4.326 0 0 1 140.222 8.734 A 5.125 5.125 0 0 1 139.945 8.879 A 4.398 4.398 0 0 1 138.516 9.286 A 5.454 5.454 0 0 1 137.891 9.321 A 5.279 5.279 0 0 1 136.472 9.137 A 4.501 4.501 0 0 1 135.48 8.73 Q 134.42 8.138 133.829 7.085 A 4.63 4.63 0 0 1 133.267 5.278 A 5.753 5.753 0 0 1 133.237 4.68 A 5.279 5.279 0 0 1 133.422 3.261 A 4.501 4.501 0 0 1 133.829 2.269 Q 134.42 1.209 135.473 0.618 A 4.63 4.63 0 0 1 137.281 0.057 A 5.753 5.753 0 0 1 137.878 0.026 A 5.624 5.624 0 0 1 139.169 0.167 A 4.193 4.193 0 0 1 140.641 0.819 A 3.734 3.734 0 0 1 142.118 2.973 A 4.701 4.701 0 0 1 142.129 3.016 Z M 51.597 0.13 L 51.597 9.256 L 49.374 9.256 L 45.656 3.627 L 45.656 9.256 L 43.433 9.256 L 43.433 0.13 L 45.656 0.13 L 49.374 5.785 L 49.374 0.13 L 51.597 0.13 Z M 132.002 0.13 L 132.002 9.256 L 129.779 9.256 L 126.061 3.627 L 126.061 9.256 L 123.838 9.256 L 123.838 0.13 L 126.061 0.13 L 129.779 5.785 L 129.779 0.13 L 132.002 0.13 Z M 118.95 9.256 L 116.233 9.256 L 113.165 5.226 L 113.165 9.256 L 110.942 9.256 L 110.942 0.13 L 113.165 0.13 L 113.165 4.134 L 116.207 0.13 L 118.82 0.13 L 115.284 4.602 L 118.95 9.256 Z M 8.918 3.224 L 6.474 3.224 A 2.113 2.113 0 0 0 6.095 2.667 A 1.877 1.877 0 0 0 5.701 2.353 Q 5.2 2.054 4.563 2.054 A 2.393 2.393 0 0 0 3.753 2.186 A 2.059 2.059 0 0 0 2.899 2.769 A 2.431 2.431 0 0 0 2.353 3.847 Q 2.265 4.217 2.262 4.652 A 4.459 4.459 0 0 0 2.262 4.68 Q 2.262 5.876 2.899 6.591 A 2.097 2.097 0 0 0 4.432 7.303 A 2.846 2.846 0 0 0 4.563 7.306 A 2.319 2.319 0 0 0 5.263 7.204 A 2.05 2.05 0 0 0 5.701 7.007 A 1.936 1.936 0 0 0 6.402 6.275 A 2.385 2.385 0 0 0 6.474 6.136 L 8.918 6.136 A 4.356 4.356 0 0 1 8.262 7.569 A 3.981 3.981 0 0 1 7.371 8.47 Q 6.214 9.321 4.589 9.321 A 5.087 5.087 0 0 1 3.149 9.124 A 4.42 4.42 0 0 1 2.217 8.73 Q 1.17 8.138 0.585 7.085 Q 0 6.032 0 4.68 A 5.339 5.339 0 0 1 0.18 3.27 A 4.53 4.53 0 0 1 0.585 2.269 Q 1.17 1.209 2.217 0.618 A 4.593 4.593 0 0 1 4.102 0.047 A 5.617 5.617 0 0 1 4.589 0.026 A 5.145 5.145 0 0 1 6.01 0.215 A 4.21 4.21 0 0 1 7.371 0.884 A 4.092 4.092 0 0 1 8.88 3.087 A 5.12 5.12 0 0 1 8.918 3.224 Z M 10.244 0.13 L 12.467 0.13 L 12.467 5.59 A 2.67 2.67 0 0 0 12.509 6.082 Q 12.561 6.358 12.676 6.574 A 1.341 1.341 0 0 0 12.87 6.851 A 1.287 1.287 0 0 0 13.482 7.22 Q 13.688 7.28 13.936 7.291 A 2.606 2.606 0 0 0 14.053 7.293 A 2.204 2.204 0 0 0 14.526 7.246 Q 14.836 7.178 15.066 7.012 A 1.271 1.271 0 0 0 15.249 6.851 Q 15.613 6.464 15.659 5.788 A 2.96 2.96 0 0 0 15.665 5.59 L 15.665 0.13 L 17.888 0.13 L 17.888 5.577 A 4.798 4.798 0 0 1 17.802 6.508 Q 17.677 7.143 17.368 7.644 Q 16.848 8.489 15.971 8.918 A 4.253 4.253 0 0 1 14.444 9.33 A 5.14 5.14 0 0 1 14.014 9.347 A 4.734 4.734 0 0 1 12.932 9.228 A 3.905 3.905 0 0 1 12.084 8.925 Q 11.232 8.502 10.738 7.651 A 3.532 3.532 0 0 1 10.339 6.576 Q 10.244 6.112 10.244 5.577 L 10.244 0.13 Z M 41.99 1.911 L 38.623 1.911 L 38.623 3.757 L 41.6 3.757 L 41.6 5.473 L 38.623 5.473 L 38.623 7.475 L 41.99 7.475 L 41.99 9.256 L 36.4 9.256 L 36.4 0.13 L 41.99 0.13 L 41.99 1.911 Z M 26.611 9.256 L 24.102 9.256 L 22.204 5.811 L 21.671 5.811 L 21.671 9.256 L 19.448 9.256 L 19.448 0.13 L 23.179 0.13 A 5.179 5.179 0 0 1 24.003 0.192 Q 24.475 0.268 24.867 0.437 A 3.072 3.072 0 0 1 25.019 0.507 Q 25.779 0.884 26.156 1.541 A 2.862 2.862 0 0 1 26.532 2.903 A 3.389 3.389 0 0 1 26.533 3.003 Q 26.533 3.913 26.02 4.628 A 2.538 2.538 0 0 1 25.086 5.413 A 3.495 3.495 0 0 1 24.505 5.642 L 26.611 9.256 Z M 35.087 9.256 L 32.578 9.256 L 30.68 5.811 L 30.147 5.811 L 30.147 9.256 L 27.924 9.256 L 27.924 0.13 L 31.655 0.13 A 5.179 5.179 0 0 1 32.479 0.192 Q 32.951 0.268 33.343 0.437 A 3.072 3.072 0 0 1 33.495 0.507 Q 34.255 0.884 34.632 1.541 A 2.862 2.862 0 0 1 35.008 2.903 A 3.389 3.389 0 0 1 35.009 3.003 Q 35.009 3.913 34.496 4.628 A 2.538 2.538 0 0 1 33.562 5.413 A 3.495 3.495 0 0 1 32.981 5.642 L 35.087 9.256 Z M 109.629 9.256 L 107.12 9.256 L 105.222 5.811 L 104.689 5.811 L 104.689 9.256 L 102.466 9.256 L 102.466 0.13 L 106.197 0.13 A 5.179 5.179 0 0 1 107.021 0.192 Q 107.493 0.268 107.885 0.437 A 3.072 3.072 0 0 1 108.037 0.507 Q 108.797 0.884 109.174 1.541 A 2.862 2.862 0 0 1 109.55 2.903 A 3.389 3.389 0 0 1 109.551 3.003 Q 109.551 3.913 109.038 4.628 A 2.538 2.538 0 0 1 108.104 5.413 A 3.495 3.495 0 0 1 107.523 5.642 L 109.629 9.256 Z M 72.423 0.13 L 74.919 0.13 L 71.76 6.24 L 71.76 9.256 L 69.537 9.256 L 69.537 6.24 L 66.378 0.13 L 68.9 0.13 L 70.668 3.952 L 72.423 0.13 Z M 52.715 0.13 L 59.774 0.13 L 59.774 1.911 L 57.356 1.911 L 57.356 9.256 L 55.133 9.256 L 55.133 1.911 L 52.715 1.911 L 52.715 0.13 Z M 96.564 9.347 Q 95.277 9.347 94.205 8.749 Q 93.132 8.151 92.502 7.079 A 4.608 4.608 0 0 1 91.877 4.916 A 5.534 5.534 0 0 1 91.871 4.667 A 4.872 4.872 0 0 1 92.117 3.1 A 4.41 4.41 0 0 1 92.502 2.262 Q 93.132 1.196 94.205 0.598 Q 95.277 0 96.564 0 Q 97.851 0 98.924 0.598 Q 99.996 1.196 100.614 2.262 A 4.62 4.62 0 0 1 101.221 4.327 A 5.59 5.59 0 0 1 101.231 4.667 A 4.942 4.942 0 0 1 100.987 6.237 A 4.484 4.484 0 0 1 100.607 7.079 Q 99.983 8.151 98.917 8.749 A 4.723 4.723 0 0 1 96.584 9.347 A 5.544 5.544 0 0 1 96.564 9.347 Z M 63.115 0.13 L 63.115 7.54 L 66.027 7.54 L 66.027 9.256 L 60.892 9.256 L 60.892 0.13 L 63.115 0.13 Z M 120.003 0.13 L 122.226 0.13 L 122.226 9.256 L 120.003 9.256 L 120.003 0.13 Z M 96.564 7.319 Q 97.656 7.319 98.313 6.591 A 2.482 2.482 0 0 0 98.892 5.434 A 3.598 3.598 0 0 0 98.969 4.667 A 3.62 3.62 0 0 0 98.884 3.861 Q 98.737 3.214 98.332 2.759 A 2.337 2.337 0 0 0 98.313 2.737 A 2.17 2.17 0 0 0 96.895 2.033 A 3.02 3.02 0 0 0 96.564 2.015 A 2.758 2.758 0 0 0 95.777 2.122 A 2.116 2.116 0 0 0 94.803 2.73 Q 94.146 3.445 94.146 4.667 A 3.62 3.62 0 0 0 94.231 5.473 Q 94.379 6.12 94.783 6.576 A 2.337 2.337 0 0 0 94.803 6.598 Q 95.459 7.319 96.564 7.319 Z M 21.671 1.976 L 21.671 4.238 L 23.049 4.238 A 1.989 1.989 0 0 0 23.393 4.21 Q 23.579 4.178 23.725 4.107 A 0.907 0.907 0 0 0 23.966 3.939 Q 24.256 3.655 24.27 3.147 A 1.888 1.888 0 0 0 24.271 3.094 A 1.426 1.426 0 0 0 24.232 2.749 A 0.979 0.979 0 0 0 23.966 2.275 A 0.957 0.957 0 0 0 23.598 2.056 Q 23.448 2.005 23.265 1.987 A 2.173 2.173 0 0 0 23.049 1.976 L 21.671 1.976 Z M 30.147 1.976 L 30.147 4.238 L 31.525 4.238 A 1.989 1.989 0 0 0 31.869 4.21 Q 32.055 4.178 32.201 4.107 A 0.907 0.907 0 0 0 32.442 3.939 Q 32.732 3.655 32.746 3.147 A 1.888 1.888 0 0 0 32.747 3.094 A 1.426 1.426 0 0 0 32.708 2.749 A 0.979 0.979 0 0 0 32.442 2.275 A 0.957 0.957 0 0 0 32.074 2.056 Q 31.924 2.005 31.741 1.987 A 2.173 2.173 0 0 0 31.525 1.976 L 30.147 1.976 Z M 104.689 1.976 L 104.689 4.238 L 106.067 4.238 A 1.989 1.989 0 0 0 106.411 4.21 Q 106.597 4.178 106.743 4.107 A 0.907 0.907 0 0 0 106.984 3.939 Q 107.274 3.655 107.288 3.147 A 1.888 1.888 0 0 0 107.289 3.094 A 1.426 1.426 0 0 0 107.25 2.749 A 0.979 0.979 0 0 0 106.984 2.275 A 0.957 0.957 0 0 0 106.616 2.056 Q 106.466 2.005 106.283 1.987 A 2.173 2.173 0 0 0 106.067 1.976 L 104.689 1.976 Z"
          fill="#4F7118"
          transform="translate(386,210)"
        />
      </g>
    </g>
    <!-- #endregion -->
  </g>

  <!-- #region defs -->
  <defs>
    <linearGradient
      id="paint0_linear_1_2"
      x1="448"
      y1="0"
      x2="448"
      y2="288"
      gradientUnits="userSpaceOnUse"
    >
      <stop stop-color="#e2e8f0" />
      <stop offset="1" stop-color="#e2e8f0" stop-opacity="0" />
    </linearGradient>
    <linearGradient
      id="paint1_linear_1_2"
      x1="448"
      y1="0"
      x2="448"
      y2="288"
      gradientUnits="userSpaceOnUse"
    >
      <stop />
      <stop offset="1" stop-opacity="0" />
    </linearGradient>
    <clipPath id="clip0_1_2">
      <path
        d="M0 32C0 14.3269 14.3269 0 32 0H864C881.673 0 896 14.3269 896 32V288H0V32Z"
        fill="white"
      />
    </clipPath>
  </defs>
  <!-- #endregion -->
</svg>
